<?xml version="1.0" encoding="UTF-8" standalone="no"?>
<!-- Created with Inkscape (http://www.inkscape.org/) -->

<svg
   xmlns:dc="http://purl.org/dc/elements/1.1/"
   xmlns:cc="http://creativecommons.org/ns#"
   xmlns:rdf="http://www.w3.org/1999/02/22-rdf-syntax-ns#"
   xmlns:svg="http://www.w3.org/2000/svg"
   xmlns="http://www.w3.org/2000/svg"
   xmlns:sodipodi="http://sodipodi.sourceforge.net/DTD/sodipodi-0.dtd"
   xmlns:inkscape="http://www.inkscape.org/namespaces/inkscape"
   width="283.95715mm"
   height="242mm"
   viewBox="0 0 1006.1474 857.48031"
   id="svg42935"
   version="1.1"
   inkscape:version="0.91 r13725"
   sodipodi:docname="OSHA-threeworkers.svg">
  <defs
     id="defs42937" />
  <sodipodi:namedview
     id="base"
     pagecolor="#ffffff"
     bordercolor="#666666"
     borderopacity="1.0"
     inkscape:pageopacity="0.0"
     inkscape:pageshadow="2"
     inkscape:zoom="0.925"
     inkscape:cx="336.22941"
     inkscape:cy="485.2171"
     inkscape:document-units="px"
     inkscape:current-layer="g43504"
     showgrid="false"
     fit-margin-top="0"
     fit-margin-left="0"
     fit-margin-right="0"
     fit-margin-bottom="0"
     inkscape:window-width="1916"
     inkscape:window-height="1035"
     inkscape:window-x="4"
     inkscape:window-y="1"
     inkscape:window-maximized="1" />
  <metadata
     id="metadata42940">
    <rdf:RDF>
      <cc:Work
         rdf:about="">
        <dc:format>image/svg+xml</dc:format>
        <dc:type
           rdf:resource="http://purl.org/dc/dcmitype/StillImage" />
        <dc:title></dc:title>
      </cc:Work>
    </rdf:RDF>
  </metadata>
  <g
     inkscape:label="Layer 1"
     inkscape:groupmode="layer"
     id="layer1"
     transform="translate(-276.07149,-131.26249)">
    <g
       id="g43504"
       transform="translate(379.28571,240)">
      <path
         style="fill:#c9ce44"
         d="m 776.38867,13.318359 c -24.94077,-0.217292 -38.46735,12.580252 -41.68555,39.253907 -1.3491,11.181959 -0.30993,16.650986 6.81641,35.898437 11.25445,30.397037 23.13799,42.455117 42.15625,42.779297 8.41925,0.14351 8.67888,0.29912 3.50977,2.08203 -5.20999,1.79701 -15.83152,-0.0867 -29.31641,-5.19922 -3.21037,-1.21714 -3.64648,-0.0829 -3.64648,9.4961 0,13.62541 1.83386,18.14812 13.73437,33.86132 5.2519,6.9345 9.87219,12.60743 10.26563,12.60743 0.39345,0 5.80574,-6.84531 12.02734,-15.21289 12.77082,-17.17576 17.3783,-28.68353 19.45508,-48.58594 1.03097,-9.88026 3.48889,-17.60216 8.74609,-27.482424 5.91314,-11.112972 7.26126,-15.80744 7.04883,-24.539062 -0.54715,-22.491455 -2.58004,-29.929954 -9.91406,-36.267578 -15.61498,-13.493561 -22.01807,-17.243817 -31.08789,-18.207032 -2.82561,-0.300079 -5.5293,-0.461896 -8.10938,-0.484375 z m -222.05859,59.75 c -17.62029,-0.04996 -37.07709,5.246285 -46.31641,14.263672 -8.15475,7.95887 -25.71287,40.548559 -23.58984,43.785159 0.7059,1.07615 10.7689,1.9414 22.5625,1.9414 27.81266,0 51.03005,2.84582 71.38086,8.75 9.0575,2.62777 17.86795,4.59555 19.57812,4.3711 7.43303,-0.97559 12.62739,-25.66063 8.46289,-40.2168 -2.8176,-9.848362 -14.41535,-21.676598 -27.63281,-28.18164 -6.49017,-3.194174 -15.21564,-4.686719 -24.44531,-4.712891 z M 743.4082,112.69141 c -2.14878,-0.15815 -5.23181,1.80155 -9.59961,5.51953 -6.47292,5.50989 -13.45413,8.48827 -32.93554,14.05273 -13.59636,3.88352 -27.14775,8.2436 -30.11524,9.68945 -3.72159,1.81328 -8.11093,8.13354 -14.14648,20.37305 -9.21876,18.69473 -27.39844,68.00313 -27.39844,74.31055 0,4.31989 6.57665,10.45254 16.04297,14.95898 11.34222,5.39944 13.97157,4.28397 22.57812,-9.58203 8.57617,-13.81703 12.23748,-15.61784 6.22852,-3.0625 -3.21732,6.72237 -3.38641,9.05989 -1.24219,17.19727 3.42151,12.98478 11.36542,28.9221 18.86328,37.84179 6.40145,7.61536 8.02401,11.1002 4.10547,8.81836 -5.74065,-3.34285 -18.67319,-21.58136 -21.85547,-30.82226 -6.40489,-18.59892 -9.10838,-17.56022 -14.61718,5.61914 -3.08625,12.98599 -3.06649,15.24334 0.26953,31.07031 1.97852,9.38665 5.12784,18.84897 7,21.02734 2.10378,2.44791 9.34555,5.33436 18.95703,7.55665 9.2691,2.14312 23.73722,3.65403 35.81641,3.74023 18.83033,0.13429 20.47618,-0.16942 23.24218,-4.27344 4.4897,-6.66157 7.19954,-22.70502 9.66016,-57.20117 2.67066,-37.44045 6.49388,-57.56402 13.49609,-71.04883 2.8691,-5.52531 5.2168,-11.981 5.2168,-14.3457 0,-5.3427 -6.80712,-18.17521 -11.63867,-21.94141 -1.98498,-1.5473 -5.79554,-7.23046 -8.4668,-12.6289 -3.89864,-7.87897 -4.86025,-13.15671 -4.87695,-26.75196 -0.0165,-13.70542 -1.00268,-19.85361 -4.58399,-20.11718 z m 72.86328,22.88281 c -0.52659,0.004 -0.97786,0.17857 -1.33007,0.55273 -0.95207,1.01141 -3.90608,7.024 -6.56446,13.35938 -2.65838,6.33538 -8.48263,16.05256 -12.9414,21.59375 -12.95758,16.10318 -28.75576,48.67246 -31.92383,65.81445 -2.64218,14.29643 -2.57489,15.11448 1.58008,19.29492 4.20425,4.23002 4.21606,4.40864 0.38086,5.7461 -2.17702,0.7592 -4.64639,2.32786 -5.48828,3.48633 -2.62987,3.61867 -1.81785,29.57232 1.00976,32.27343 2.08638,1.99304 1.89956,2.97957 -0.9375,4.95508 -2.06701,1.43932 -4.41985,7.30902 -5.65234,14.09961 -1.16138,6.39878 -2.71781,14.8338 -3.45899,18.74414 l -1.34765,7.10938 10.125,2.08789 c 9.54245,1.9682 31.54068,1.46839 33.91796,-0.77149 0.59849,-0.5639 -0.29087,-1.84711 -1.97656,-2.85156 -3.30607,-1.96998 -3.05069,-2.03967 9.39844,-2.53711 13.26387,-0.53001 12.10483,-5.61956 -3.00781,-13.20898 -6.96041,-3.49544 -12.25838,-6.72852 -11.77539,-7.1836 0.48302,-0.45508 7.17376,1.54656 14.86914,4.44727 15.66251,5.90384 17.57336,5.18016 17.63086,-6.67774 0.0709,-14.65102 15.62002,-54.59292 23.71875,-60.92578 4.91323,-3.84196 4.36058,-2.04438 -5.23438,17.00391 -9.76624,19.38835 -14.22572,33.261 -14.26172,44.36914 -0.0218,6.69276 0.36837,7.29543 3.25391,5.03906 4.69202,-3.66896 9.65695,-13.64679 18.50391,-37.17969 13.09351,-34.82873 16.87619,-40.71514 34.96875,-54.41406 11.01573,-8.34063 19.69516,-13.18546 27.39648,-15.29492 6.19964,-1.69811 13.71065,-5.2175 16.69141,-7.82031 4.83411,-4.22118 5.41797,-6.20411 5.41797,-18.35743 0,-15.7156 -0.33856,-16.00781 -18.52344,-16.00781 -13.15924,0 -16.2611,1.61555 -22.69532,11.8125 -2.3961,3.79733 -6.85812,9.09654 -9.91601,11.77735 -3.05789,2.6808 -6.38544,6.88482 -7.39258,9.34179 -2.48862,6.07113 -6.93757,7.29218 -16.62109,4.5586 -10.59116,-2.98979 -14.44141,-9.92794 -14.44141,-26.0293 l 0,-12.29297 11.51563,-10.0957 c 12.94954,-11.35506 12.46263,-14.04165 -2.89454,-15.98242 -10.07956,-1.27382 -11.67008,0.96874 -13.55859,19.11328 -0.7336,7.04833 -3.15164,17.5003 -5.37305,23.22656 -4.18348,10.78403 -13.42579,23.83203 -16.88086,23.83203 -2.89705,0 -2.65435,-0.66313 5.1875,-14.16601 9.89524,-17.03864 14.69994,-35.80092 11.78126,-46.01368 -2.13563,-7.47272 -9.46426,-15.85464 -13.1504,-15.82812 z m -314.49414,2.50976 c -13.94691,0.0346 -16.27203,2.55992 -11.54492,9.35743 1.83718,2.64184 6.74516,6.7851 10.9043,9.20703 l 7.56055,4.40429 6.32031,-4.40234 c 6.27665,-4.37232 6.35527,-4.37589 11.8164,-0.62695 3.02378,2.07576 7.37224,7.35723 9.66407,11.73633 2.29184,4.37909 5.57409,9.54542 7.29297,11.48046 4.43308,4.99058 18.56093,10.65429 26.70312,10.70508 5.94479,0.0371 6.72813,0.58941 5.5957,3.95117 -0.7234,2.14972 -0.73212,4.79933 -0.0176,5.88868 1.75186,2.67073 34.19007,2.52781 42.45703,-0.1875 10.69896,-3.51412 13.60338,-13.14743 7.80273,-25.86914 -8.15285,-17.88037 -28.09183,-23.05654 -35.66406,-9.25977 -3.92308,7.14795 -11.12692,9.13524 -19.04688,5.25391 -3.27468,-1.60483 -13.09143,-9.05897 -21.81445,-16.56446 L 533.94727,139.51172 513.3457,138.4375 c -4.51266,-0.2354 -8.34984,-0.3615 -11.56836,-0.35352 z M 959.1543,139.25 c -8.58,0.006 -18.79938,0.20555 -28.58594,0.5957 -32.96439,1.31416 -36.51397,1.82621 -48.15039,6.93555 -16.26973,7.14372 -36.05968,22.13478 -37.78906,28.62695 -1.83907,6.90397 1.9299,13.82195 10.08007,18.50391 12.00915,6.89882 17.15419,4.26131 7.78125,-3.98828 -7.26404,-6.39345 -8.6856,-12.5631 -1.48828,-6.45899 2.57832,2.1867 6.41273,4.55163 8.52149,5.25586 6.66397,2.22547 8.03536,-0.86911 2.51953,-5.68554 -5.2607,-4.59366 -6.94757,-8.75196 -3.55078,-8.75196 0.96832,0 3.45715,1.76641 5.53125,3.92578 4.45474,4.63794 7.93777,4.98004 11.34375,1.11329 1.99717,-2.26736 1.43924,-3.45423 -2.8711,-6.11524 -5.74042,-3.54388 -6.88334,-8.471 -2.84765,-12.27344 3.91454,-3.68829 7.84964,-2.7796 9.89258,2.28321 1.74092,4.3143 3.29998,4.72243 22.3457,5.84765 11.26091,0.6653 25.37447,1.7807 31.36523,2.47852 8.68195,1.01129 13.2539,0.3651 22.52344,-3.17969 13.35836,-5.1084 17.27014,-3.71685 13.20313,4.69336 -3.04656,6.3 -0.62108,9.44232 6.02539,7.80469 4.4148,-1.08777 4.65234,-2.1294 4.65234,-20.40821 l 0,-19.25976 -11.75,-1.38281 c -3.23136,-0.3804 -10.17196,-0.56698 -18.75195,-0.56055 z m -388.73242,7.08398 c -3.82004,-0.14977 -3.30982,2.2672 1.56445,7.22266 5.7113,5.8064 14.02436,6.25944 15.12305,0.82422 0.46109,-2.28103 -2.09695,-4.0971 -8.79688,-6.24805 -3.52317,-1.13108 -6.15425,-1.73075 -7.89062,-1.79883 z m -82.26172,9.94922 c -2.25284,0.11711 -2.37894,2.64239 0.13867,7.38672 1.66533,3.13825 3.96686,10.63006 5.11328,16.64844 3.1569,16.57302 13.53748,36.78906 19.47851,37.93359 2.67061,0.5145 7.46036,1.45586 10.64454,2.0918 3.93914,0.78672 6.89388,3.33478 9.24218,7.97461 1.89822,3.75056 4.22243,6.82031 5.16602,6.82031 0.94362,0 5.4355,-2.53916 9.98242,-5.64258 4.54692,-3.10339 13.44602,-7.62254 19.77539,-10.04297 8.22956,-3.14709 11.50781,-5.45499 11.50781,-8.0996 0,-2.03398 -0.96823,-3.69727 -2.15234,-3.69727 -1.18413,0 -5.4346,-3.09219 -9.44531,-6.87109 -4.01072,-3.77891 -8.91862,-6.8711 -10.90625,-6.8711 -6.76771,0 -19.12265,-9.8661 -24.2168,-19.33789 -6.73781,-12.52794 -9.76731,-14.78705 -14.91211,-11.11914 -6.00578,4.28172 -11.45463,3.48917 -20.54101,-2.98828 -4.08375,-2.9112 -7.1228,-4.27663 -8.875,-4.18555 z m 482.89453,14.07422 c -2.34555,0 -8.48438,5.56904 -8.48438,7.69727 0,1.56041 -15.71683,103.8981 -41.78125,272.03906 -37.26931,240.42345 -41.95912,271.99288 -40.82031,274.78906 1.47059,3.61077 5.28392,3.91805 6.58789,0.53125 1.06896,-2.77645 0.80618,-1.12493 26.03125,-162.44336 10.21413,-65.32113 27.98097,-178.39448 39.48242,-251.27343 11.50145,-72.87895 20.91206,-134.49453 20.91407,-136.92383 0.002,-2.4293 -0.86563,-4.41602 -1.92969,-4.41602 z m -28.96875,4.83008 c -1.40518,-0.06 -2.86074,0.22332 -4.24219,0.91992 -8.49615,4.28421 -6.89491,22.10783 2.29883,25.58789 6.82982,2.58527 9.09259,2.40293 12.0625,-0.96875 2.0414,-2.31757 2.09841,-4.13105 0.2539,-7.94531 -1.31439,-2.71805 -2.38867,-7.07707 -2.38867,-9.6875 0,-4.45803 -3.76883,-7.72634 -7.98437,-7.90625 z m -93.98828,18.86719 c -1.37178,-0.0973 -2.20118,1.21282 -2.20118,3.88086 0,2.67216 2.27147,4.92874 6.77149,6.72851 6.79565,2.71791 11.58318,1.26216 8.9668,-2.72656 -0.76993,-1.17376 -2.63751,-2.13477 -4.14844,-2.13477 -1.51094,0 -3.91331,-1.32382 -5.33985,-2.94335 -1.58713,-1.80185 -2.98189,-2.72902 -4.04882,-2.80469 z m -254.3418,24.14453 c -14.94528,-0.17755 -43.22591,13.90535 -55.61133,28.89844 -4.82371,5.83931 -8.80701,11.54138 -8.85351,12.67187 -0.0464,1.13049 3.7418,5.54651 8.41992,9.81445 8.85503,8.07864 15.15716,17.43339 13.98242,20.75391 -0.37563,1.06174 -4.62689,-3.33904 -9.44727,-9.7793 -11.0291,-14.73535 -19.2016,-18.03851 -32.65039,-13.19921 -12.17192,4.37981 -18.42733,11.24803 -26.96875,29.61523 -4.01676,8.63751 -11.49676,22.77265 -16.62304,31.41016 -15.1837,25.58374 -14.93831,27.48425 2.78125,21.59375 17.35374,-5.76889 15.31748,-2.56762 -4.14258,6.51367 -12.89801,6.01903 -20.0291,10.50288 -20.51953,12.90234 -0.68134,3.33339 0.36794,3.58957 11.21289,2.74219 9.47628,-0.74043 17.35236,-3.54996 37.87304,-13.50977 29.35188,-14.24603 30.85048,-14.86521 28.95313,-11.97265 -0.75498,1.15095 -13.23918,8.48657 -27.74219,16.30273 -25.39442,13.68593 -26.96703,14.2439 -42.58398,15.0957 -19.80377,1.08018 -23.26179,3.71013 -22.96875,17.46485 0.15958,7.49065 -0.85443,10.37799 -5.11133,14.56445 -4.84342,4.76325 -7.64873,11.54597 -10.54688,25.49609 -0.81454,3.92071 0.26278,6.09556 4.61914,9.32422 6.70797,4.97154 14.8524,5.35315 25.42383,1.19141 10.19927,-4.01522 14.95195,-8.30563 18.53321,-16.73242 1.63418,-3.84528 6.7426,-9.72352 11.35351,-13.0625 4.6109,-3.339 11.37811,-10.02558 15.03711,-14.85938 3.65902,-4.8338 11.38131,-12.30401 17.16016,-16.59961 13.19012,-9.80463 21.33414,-18.86734 26.02148,-28.95703 11.8675,-25.54524 21.40379,-42.85209 22.31836,-40.50586 0.57825,1.48341 -1.57712,7.87722 -4.78906,14.20899 -6.85788,13.51911 -5.1441,17.35643 3.4414,7.70703 6.80406,-7.6472 8.21971,-4.27676 2.0293,4.83203 -3.95281,5.8163 -28.72742,29.77825 -46.81836,45.2832 -13.03619,11.17274 -13.59885,15.18367 -4.21289,30.0293 11.01359,17.42 12.18334,17.9385 40.40625,17.9043 24.68206,-0.0298 44.85202,-3.24552 56.93555,-9.07813 8.77053,-4.23346 9.70384,-5.91966 7.00195,-12.66406 -3.13869,-7.83474 0.86931,-11.88339 6.77735,-6.8457 5.84081,4.98035 9.32959,2.16608 5.01171,-4.04297 -2.94915,-4.24083 -3.02275,-5.23441 -0.49804,-6.74805 1.62827,-0.97619 4.36706,-1.2428 6.08594,-0.5918 12.32649,4.66844 12.49056,4.10418 5.25,-17.91015 -2.84091,-8.6375 -8.04942,-31.99152 -11.57618,-51.89844 -3.52678,-19.90691 -6.88367,-36.91198 -7.45898,-37.78906 -0.57531,-0.87708 -2.60549,-1.59571 -4.51172,-1.59571 -2.76732,0 -2.55405,-0.60089 1.06055,-2.98632 3.89516,-2.57058 4.36942,-4.28336 3.39062,-12.26953 -0.95919,-7.82636 -0.12281,-11.09166 5.3418,-20.82422 7.39498,-13.17061 6.5204,-15.98957 -5.62695,-18.13672 -6.51125,-1.1509 -33.94957,1.60871 -43.86914,4.41211 -1.90473,0.53829 -0.95003,-0.39885 2.12109,-2.08203 3.07112,-1.68317 11.40923,-4.34082 18.53125,-5.90625 16.04273,-3.52622 19.10227,-5.95962 11.56055,-9.19727 -1.50552,-0.64631 -3.36887,-0.96292 -5.50391,-0.98828 z m 31.66016,27.78906 c -0.26888,-0.0197 -0.47228,0.008 -0.60352,0.084 -2.96333,1.72557 -10.18359,15.96359 -10.18359,20.08203 0,3.7315 7.60769,8.19347 14.16211,8.30664 1.95144,0.0337 7.29718,2.23683 11.88086,4.89648 4.58366,2.65966 9.18865,4.5739 10.23242,4.25196 1.04376,-0.32194 3.2041,-4.80742 4.80078,-9.9668 3.01433,-9.74022 1.39139,-14.94727 -4.66016,-14.94727 -1.4634,0 -7.53504,-3.09002 -13.49219,-6.86719 -5.2125,-3.30501 -10.25459,-5.70198 -12.13671,-5.83984 z m -2.70704,31.67969 c -4.20494,0.0365 -5.99609,2.63857 -5.99609,8.01172 0,11.66826 13.09642,78.5861 18.08008,92.3789 4.70036,13.00881 5.55382,19.06241 6.13672,43.57227 0.37232,15.65548 0.70087,28.71553 0.73047,29.02344 0.0296,0.3079 2.05686,-0.44967 4.5039,-1.6836 4.12474,-2.07991 4.34709,-1.86777 3.07227,2.91797 -1.69534,6.36429 4.13704,9.53759 8.11328,4.41406 4.65103,-5.99306 5.01258,-3.36455 1.0332,7.53321 -3.17106,8.68419 -3.3816,10.79687 -1.07226,10.79687 2.63901,0 7.17418,-5.21982 12.60547,-14.50586 3.69392,-6.31559 6.20371,-2.63364 5.5371,8.125 -0.72008,11.62202 0.28098,12.72354 4.46094,4.90821 7.3989,-13.83383 5.45596,-33.68213 -5.95703,-60.875 -2.86569,-6.82787 -5.18114,-16.42478 -5.21094,-21.59375 -0.0294,-5.11716 -1.88029,-16.81289 -4.11328,-25.99024 -2.233,-9.17735 -4.08388,-20.74825 -4.11328,-25.71289 -0.0898,-15.15949 -7.6194,-44.91524 -12.63867,-49.94922 -2.47168,-2.47892 -9.15841,-6.39745 -14.86133,-8.70898 -4.39545,-1.78159 -7.78758,-2.68401 -10.31055,-2.66211 z m -36.76953,14.93359 c 0.45704,-0.0415 0.78925,0.008 0.95703,0.16602 0.5775,0.54415 -2.88861,2.88304 -7.70312,5.19726 -4.81452,2.31423 -8.12674,3.25284 -7.36133,2.08594 1.60834,-2.45191 10.90814,-7.15842 14.10742,-7.44922 z m 83.28907,45.24414 c -0.72715,-0.0261 -1.31857,0.0266 -1.71485,0.16992 -4.31534,1.56026 -3.49184,12.36825 1.28516,16.86915 7.7228,7.27645 16.66797,4.47726 16.66797,-5.2168 0,-5.91275 -0.94503,-7.13413 -7.53516,-9.72852 -3.10837,-1.22369 -6.52168,-2.01547 -8.70312,-2.09375 z m 30.82226,7.22461 0,6.83399 c 0,7.22249 0.96439,7.80662 15.62695,9.49414 8.9611,1.03133 10.07341,0.61802 13.44141,-5.00977 4.85892,-8.11902 0.40027,-11.31836 -15.7793,-11.31836 z m 35.875,1.43555 -1.48047,6.34766 c -0.81377,3.49091 -0.68044,7.09412 0.29492,8.00781 0.97537,0.91369 7.39793,1.93055 14.27344,2.25976 14.38529,0.68878 19.79297,-0.97875 19.79297,-6.10156 0,-5.73595 -4.78101,-8.04057 -19.32617,-9.32031 z m 65.04492,2.87305 c -1.25538,-0.0177 -2.49609,0.32401 -3.37109,1.14843 -1.19821,1.12896 -1.51617,3.06332 -0.70703,4.29688 1.84087,2.80642 7.73682,1.87147 8.89648,-1.41016 0.78318,-2.21623 -2.05652,-3.99622 -4.81836,-4.03515 z m -20.70508,1.58007 c -5.62828,0 -8.20983,2.76655 -6.5,6.96485 1.49803,3.67819 8.39008,3.67363 11.63282,-0.008 3.3412,-3.79324 1.00723,-6.95704 -5.13282,-6.95704 z m -87.21289,0.82813 c -0.16413,0.0812 -0.38135,0.91688 -0.70117,2.46484 -1.23855,5.99486 -4.61753,8.09503 -14.20312,8.83008 -6.96332,0.53395 -8.20171,1.27358 -7.6543,4.56445 0.3592,2.15938 1.36077,11.43398 2.22461,20.61133 0.86381,9.17735 2.74988,18.74227 4.19336,21.25586 4.28619,7.46365 10.53269,26.43733 10.58789,32.16211 0.0475,4.93604 6.91819,13.32617 10.91211,13.32617 0.95746,0 6.51125,3.0922 12.3418,6.8711 6.67548,4.32653 13.0599,6.87109 17.24218,6.87109 3.65296,0 7.76748,1.05984 9.14258,2.35547 3.8377,3.61589 2.97127,9.01696 -1.66797,10.4043 -2.37841,0.71124 -4.16601,2.96905 -4.16601,5.26171 0,3.67093 -0.84028,3.89949 -9.75,2.64063 -8.492,-1.19986 -10.18367,-0.83568 -13.11524,2.82617 -2.7984,3.49548 -4.27182,3.87818 -8.74609,2.27539 -3.15702,-1.13093 -6.30257,-4.41968 -7.61133,-7.95703 -1.97702,-5.34349 -8.69726,-8.70273 -8.69726,-4.34766 0,3.7114 15.37694,20.33503 23.00976,24.875 10.36478,6.16487 16.09873,13.93951 12.66602,17.17383 -1.87129,1.76303 -3.40375,1.7387 -6.53125,-0.10156 -8.15354,-4.79767 -11.43884,-1.06382 -4.98047,5.66016 7.31504,7.61585 -4.97015,10.64098 -14.50781,3.57226 -4.17839,-3.09676 -5.49024,-5.81887 -5.49024,-11.39453 0,-4.71223 -2.15719,-10.52969 -6.04687,-16.30859 -7.7612,-11.53082 -11.81327,-14.1684 -9.69532,-6.31055 0.84369,3.13018 3.35935,13.64219 5.58985,23.35938 2.23049,9.71719 7.7711,27.95296 12.3125,40.52539 4.5414,12.57242 8.25781,24.97619 8.25781,27.5625 0,2.58628 1.46121,9.9673 3.24805,16.40234 1.78684,6.43506 4.59238,18.32422 6.23437,26.42187 12.14053,59.87214 17.95125,76.49417 27.76758,79.42969 3.19061,0.95413 3.80664,3.28095 3.80664,14.37891 0,8.42294 1.23998,15.50098 3.41016,19.45508 l 3.41211,6.21484 19.29296,-0.35547 c 10.61091,-0.19596 19.98038,-1.24062 20.82227,-2.32031 2.25398,-2.89064 1.92013,-17.02843 -0.67187,-28.41602 -1.94798,-8.55814 -4.36922,-11.91297 -17.18946,-23.81836 -13.5694,-12.60108 -14.1112,-13.38939 -5.98828,-8.71289 4.91278,2.82839 9.94131,4.5548 11.17578,3.83594 2.76216,-1.60842 0.82089,-20.38119 -3.83789,-37.11523 -2.35596,-8.46242 -3.57058,-25.04293 -4.31836,-58.89258 -1.2452,-56.36396 -1.47728,-113.33756 -0.52734,-129.5625 1.06035,-18.11092 -2.70193,-23.32102 -19.13281,-26.49805 -18.669,-3.60977 -22.28687,-6.3859 -6.64063,-5.0957 7.00498,0.57756 13.29375,0.52432 13.97461,-0.11719 0.68087,-0.64153 -0.58957,-4.53863 -2.82226,-8.66211 -2.9588,-5.46448 -7.02979,-8.88036 -15.01563,-12.5957 -10.46832,-4.87032 -18.25,-11.24858 -18.25,-14.96094 0,-0.95293 4.29075,1.35322 9.53516,5.125 5.24439,3.77176 11.38552,6.85742 13.64648,6.85742 3.76805,0 4.0027,-0.94075 2.79688,-11.28711 -0.73509,-6.30744 -0.38093,-13.45294 0.80468,-16.19531 1.82191,-4.21412 2.14057,-3.36311 2.25391,6.02344 0.19793,16.38244 11.62616,47.66201 18.97852,51.94336 4.48788,2.61336 16.85157,-1.38779 29.60351,-9.57813 18.24066,-11.71566 18.37189,-11.77797 16.94141,-8.26562 -1.77834,4.36643 -19.91799,16.44957 -29.27539,19.50195 -4.39415,1.43337 -7.52022,3.40007 -6.94727,4.37109 2.13698,3.6217 39.82913,-1.68467 57.29688,-8.0664 3.89969,-1.42473 3.94619,-1.30126 0.73046,1.92383 -3.87875,3.89002 -28.17436,9.84064 -48.58789,11.90039 -7.48326,0.75508 -13.60547,2.08791 -13.60547,2.96094 10e-6,0.87299 3.64683,3.6402 8.10352,6.15039 13.73134,7.73406 37.64111,27.01458 63.45117,51.16406 17.19314,16.08698 26.13518,23.08984 29.48438,23.08984 3.3091,0 6.18344,2.19831 9.22461,7.05469 4.28894,6.84909 4.31607,7.3562 0.95508,17.40234 -3.21449,9.60797 -3.21762,11.02365 -0.0449,19.79688 1.87935,5.19679 3.41797,14.09707 3.41797,19.7793 0,11.76837 3.11627,15.66938 4.89649,6.1289 6.40063,-34.30224 20.29521,-136.08666 18.82421,-137.89844 -1.01431,-1.24933 -5.50941,-7.4546 -9.98828,-13.79101 -7.64642,-10.81767 -19.41682,-22.39311 -43.94336,-43.21485 -26.37903,-22.3944 -30.21093,-26.45257 -30.21093,-31.98828 0,-5.51054 -7.11604,-13.48657 -15.625,-17.51172 -4.40274,-2.0827 -20.58009,-0.61448 -35.65821,3.23633 -4.71497,1.20417 -11.51148,1.63746 -15.10156,0.96094 -3.98563,-0.75105 -7.74484,-0.27784 -9.65625,1.2168 -2.18114,1.70556 -3.92172,1.83456 -5.73633,0.42383 -1.4324,-1.11357 -11.51026,-2.65874 -22.39648,-3.4336 -23.12638,-1.64611 -26.98549,-3.10047 -27.36914,-10.30664 -0.13212,-2.48149 -0.25382,-3.62398 -0.46485,-3.51953 z m 79.42774,33.28516 c 0.31741,-0.0373 0.49414,0.006 0.49414,0.14062 0,0.53985 -2.8142,2.35235 -6.25195,4.02734 -3.43776,1.67498 -6.25,2.60234 -6.25,2.0625 0,-0.53985 2.81224,-2.35235 6.25,-4.02734 2.57831,-1.25624 4.80559,-2.09114 5.75781,-2.20312 z m -142.84375,21.00781 c -0.98989,0.0882 -2.3002,1.49677 -3.57617,4.19726 -1.13117,2.39402 -4.40084,4.9277 -7.26563,5.62891 -5.13042,1.25576 -5.0973,1.32006 2.12696,4.31836 4.03397,1.67422 9.10542,4.8894 11.27148,7.14453 5.52799,5.75531 6.45463,3.63806 2.49023,-5.69726 -1.86232,-4.38541 -3.38672,-9.72186 -3.38671,-11.85938 0,-2.58682 -0.67027,-3.8206 -1.66016,-3.73242 z m -141.14453,6.71289 c -0.10742,-0.004 -0.22292,0.001 -0.34571,0.0156 -2.16094,0.25224 -6.70181,3.39043 -13.63281,9.42188 -4.29719,3.73947 -7.8125,8.66749 -7.8125,10.95117 0,6.20462 5.52593,5.00868 8.02149,-1.73633 1.1984,-3.23906 3.5814,-5.88867 5.29492,-5.88867 3.43953,0 9.60156,-7.25406 9.60156,-11.30273 0,-0.94296 -0.37505,-1.4307 -1.12695,-1.46094 z m 6.77539,7.39062 c -0.41478,-0.0156 -0.80845,0.073 -1.16602,0.28125 -3.62116,2.10867 -2.87667,8.56064 1.24805,10.82422 5.27131,2.8928 6.77148,2.57487 6.77148,-1.43164 0,-4.38972 -3.95004,-9.56466 -6.85351,-9.67383 z m 124.37109,5.87696 c -3.45471,-0.1061 -8.79624,1.293 -16.58398,4.23047 -21.27116,8.02326 -31.3618,9.53993 -61.02149,9.17382 -18.62702,-0.22994 -28.76895,0.41192 -30.73242,1.94727 -3.63036,2.8388 -3.86925,14.81914 -0.32617,16.35742 1.43239,0.62188 12.1426,0.74787 23.79883,0.28125 16.24354,-0.65024 25.48855,-2.20768 39.58594,-6.66797 26.60582,-8.41783 51.22731,-19.38937 50.17773,-22.35937 -0.66727,-1.88821 -2.21144,-2.88037 -4.89844,-2.96289 z m -134.47461,6.40625 c -1.03282,0.003 -1.8388,0.1972 -2.29492,0.62695 -2.74441,2.58579 1.82653,15.40126 6.38672,17.9082 1.9194,1.05517 5.49709,1.94377 7.95117,1.97657 5.55887,0.0744 8.51122,-8.61403 4.48242,-13.19141 -3.28684,-3.7344 -12.04983,-7.3317 -16.52539,-7.32031 z m 145.34961,4.49218 c -3.35227,-0.12653 -8.76627,1.87993 -17.27344,5.88282 -28.40118,13.36363 -53.46289,19.84564 -84.03515,21.73437 l -19.79297,1.22266 -1.66016,22.57617 c -1.6921,23.0077 -1.35622,33.20793 2.51563,76.55859 7.67903,85.97719 7.83459,86.90584 17.91406,106.00586 7.48361,14.18099 12.06143,27.98922 15.61524,47.11328 1.30415,7.01797 7.881,26.01172 14.61718,42.20704 14.98677,36.03166 16.20064,40.24218 11.59375,40.24218 -1.87147,0 -4.25165,2.10294 -5.28906,4.67383 -1.54805,3.83637 -3.40577,4.69466 -10.36523,4.78516 -7.65629,0.0996 -8.48047,-0.35987 -8.48047,-4.73047 0,-2.66234 2.87089,-10.19646 6.3789,-16.74414 l 6.37891,-11.90625 -7.36133,-17.12696 c -10.36327,-25.0772 -4.18799,-59.90119 -26.7832,-84.60546 l -4.65625,-6.85157 -1.16797,21.59375 c -0.92702,17.13433 -2.12135,23.25079 -5.78125,29.61914 -3.36458,5.8545 -5.13919,13.67916 -6.56055,28.92188 -1.46361,15.69594 -3.54563,24.65471 -8.36719,36 -4.47273,10.52458 -6.0235,16.80233 -5.11328,20.70703 l 1.30664,5.60352 -25.70312,-0.55274 -25.70313,-0.55273 c 13.99807,-3.06242 -10.28865,-0.58314 -14.30859,-3.35742 -0.7594,2.83384 -2.38813,3.54942 -7.04687,3.97265 -5.9166,0.53749 -6.77149,0.0278 -6.77149,-4.0332 0,-11.23249 -19.66969,-30.93555 -30.88281,-30.93555 -3.27262,0 -4.6404,-1.57831 -5.5332,-6.38086 -3.87424,-20.70039 -12.07886,-38.16325 -6.38086,-58.08008 30.42252,-84.85426 91.28939,-170.99758 104.92187,-229.92578 -5.5353,0.15025 -26.65504,33.03342 -36.25781,56.45313 -6.63372,16.17862 -16.47742,34.45503 -19.9668,37.07031 -1.52591,1.14367 -15.90051,7.59916 -31.94336,14.3457 -71.45032,30.04709 -89.17057,37.32422 -90.88476,37.32422 -3.70007,0 -1.48922,-5.9979 14.53711,-39.45117 34.53862,-72.09582 43.67816,-85.88714 63.04687,-95.13477 12.70785,-6.06738 14.42139,-8.72371 5.61133,-8.69921 -9.33761,0.026 -26.74074,7.93818 -33.08398,15.04101 -7.11538,7.96741 -32.33095,54.92217 -46.73047,87.01953 -6.53898,14.57579 -14.57379,31.36054 -17.85547,37.29883 -3.28168,5.93828 -15.48491,30.23124 -27.11719,53.98438 -35.51554,72.52285 -67.23053,132.50781 -70.06055,132.50781 -1.47718,0 -2.68554,-0.3222 -2.68554,-0.71485 0,-0.39265 7.53807,-15.55139 16.75195,-33.68554 9.51918,-18.73502 15.96908,-33.70968 14.9375,-34.68164 -2.66401,-2.51004 -25.32796,6.22475 -28.5918,11.01953 -1.52616,2.24202 -7.23309,16.2246 -12.68164,31.07031 -7.85233,21.3953 -10.69472,26.99219 -13.70508,26.99219 -2.08881,0 -3.79687,-0.89831 -3.79687,-1.99609 0,-1.09778 5.26074,-14.42638 11.6914,-29.61915 6.70937,-15.85119 10.91274,-28.35885 9.86329,-29.34765 -3.13906,-2.95762 -88.575953,-42.10016 -102.408207,-46.91797 -8.317467,-2.89696 -13.867679,-3.8918 -15.123047,-2.70899 -1.090799,1.02774 -5.157712,8.88489 -9.037109,17.45899 -3.879395,8.57411 -13.763157,29.16009 -21.964844,45.74805 -8.201685,16.58797 -14.619881,31.5934 -14.261719,33.3457 0.35816,1.75229 4.625014,5.25269 9.482422,7.77734 4.857411,2.52462 8.832032,5.40746 8.832032,6.40625 0,0.99881 -7.500625,1.81641 -16.667969,1.81641 l -16.667969,0 0,23.55664 0,23.55664 494.82812,0 494.82813,0 0,-48.36719 0,-48.36523 -14.0625,1.35547 c -15.33742,1.479 -48.58006,13.61238 -60.44141,22.06054 -3.73482,2.6601 -8.80541,8.53833 -11.26757,13.06446 -2.46214,4.52613 -4.85151,7.19279 -5.31055,5.92383 -1.33005,-3.67687 7.30317,-17.94359 12.97851,-21.44727 2.8988,-1.7896 5.18164,-5.08508 5.18165,-7.48047 0,-2.35512 -4.46188,-12.63475 -9.91602,-22.8418 l -9.91797,-18.55664 -12.59961,-0.57617 -12.59961,-0.57422 -11.7539,11.61133 c -6.46506,6.3862 -12.41129,14.15453 -13.21289,17.26172 -0.80161,3.10718 -4.39204,8.74636 -7.97852,12.5332 -6.45122,6.81163 -9.75269,13.09591 -12.88867,24.52539 l -1.61524,5.88868 -0.79687,-5.60938 c -0.43834,-3.08522 0.3384,-8.19393 1.72656,-11.35156 1.38822,-3.15762 2.00237,-6.23175 1.36524,-6.83203 -2.23379,-2.10467 -13.98765,7.8813 -13.99805,11.89258 -0.006,2.22626 -2.18976,6.61342 -4.85352,9.75 L 802.85352,807 l -17.54493,-1.79688 -17.54297,-1.79687 9.35743,-2.92383 c 6.00553,-1.87657 9.62537,-4.2485 10.10351,-6.62109 0.64997,-3.22514 -0.0131,-3.4755 -5.1914,-1.96289 -3.26472,0.95363 -14.17264,1.68916 -24.24024,1.63476 l -18.30469,-0.0996 1.17774,5.0586 c 1.17759,5.05167 1.14925,5.06432 -20.23828,7.84179 -11.78052,1.52986 -32.78997,3.09973 -46.6875,3.49024 l -25.26953,0.71094 -1.36524,-11.39649 c -2.14776,-17.92767 -5.47311,-29.86997 -12.74219,-45.75 -3.70669,-8.09766 -8.35108,-19.41203 -10.32031,-25.14258 -3.42583,-9.96933 -3.84027,-10.36453 -9.60351,-9.17187 -5.90554,1.22211 -5.99308,1.11898 -4.48047,-5.28516 1.70605,-7.22318 1.51169,-17.81084 -0.78321,-42.84961 -1.30393,-14.22662 -1.6925,-61.95414 -0.67578,-82.93945 0.17001,-3.50898 -0.38315,-10.60522 -1.22851,-15.76953 l -1.53516,-9.38867 13.08008,-11.22266 c 15.194,-13.03549 18.72851,-15.30675 18.72852,-12.03125 0,1.28237 -5.47722,7.28849 -12.17188,13.34766 l -12.17188,11.01757 0.19141,29.92579 c 0.11659,18.15499 1.01146,30.12422 2.27539,30.42773 3.44833,0.82808 11.86297,-18.2187 14.07813,-31.86719 1.14102,-7.03022 4.21603,-20.2914 6.83398,-29.46875 8.79908,-30.84575 10.14299,-40.03078 10.24219,-70.04101 l 0.0977,-29.79688 -5.72852,-5.64453 c -3.70762,-3.65271 -5.73047,-7.77428 -5.73047,-11.67773 0,-5.82433 -1.14998,-8.70816 -4.94922,-8.85157 z m -202.08203,369.01954 0,-0.002 c 0.1752,-0.65432 0.30473,-1.42166 0.41406,-2.32422 -1.22668,1.03573 -1.20519,1.78019 -0.41406,2.32618 z M 398.98828,437.33398 c -2.86479,3.65859 -5.20898,7.85161 -5.20898,9.31641 0,3.20573 -14.56963,16.18206 -18.1836,16.19531 3.799,0.91783 7.04297,2.77171 9.96094,2.92578 0.15248,-0.14511 0.27037,-0.2659 0.42969,-0.41601 3.31069,-3.11934 5.25913,-4.87029 7.01172,-5.6543 2.03137,-4.2687 3.98896,-11.24117 5.99023,-22.36719 z m -5.99023,22.36719 c -2.32153,4.87844 -4.74177,6.21286 -7.44141,6.07031 -5.64833,5.37521 -6.6714,7.39264 -4.71875,9.23243 2.00533,1.88947 4.4221,1.87133 11.38867,-0.084 17.07581,-4.79263 16.93945,-4.80481 20.82422,1.74024 2.00536,3.37862 3.64649,8.38889 3.64649,11.13281 0,6.56244 3.48939,3.8519 10.3164,-8.01172 4.99103,-8.67315 5.01779,-8.96548 1.23828,-12.90039 -2.67891,-2.78909 -6.44243,-4.02734 -12.25,-4.02734 -4.6112,0 -11.52063,-1.06718 -15.35351,-2.37305 -3.6631,-1.24804 -5.5095,-1.73701 -7.65039,-0.7793 z m 11.36133,-16.86523 c -0.72436,0.0195 -1.33577,0.31427 -1.91016,0.85547 -3.52468,3.32097 -2.97699,6.85859 1.74805,11.31054 4.54825,4.28538 11.75593,5.05627 16.66796,1.78321 2.53466,-1.68895 2.59432,-2.28167 0.31836,-3.14063 -1.54345,-0.58248 -5.84612,-3.57367 -9.56054,-6.64648 -3.52611,-2.91702 -5.67013,-4.20503 -7.26367,-4.16211 z m 69.66406,1.92968 -11.36328,3.82227 c -13.75202,4.62617 -15.34713,7.45995 -5.20899,9.25195 7.24941,1.2814 7.53693,1.63104 6.24219,7.59571 -0.74649,3.439 -1.8834,9.12383 -2.52734,12.63281 -1.66843,9.09163 4.4244,8.62786 7.65039,-0.58203 1.66025,-4.73983 5.20184,-8.58097 11.09961,-12.04102 4.76389,-2.79484 9.06539,-5.41677 9.55859,-5.82617 0.49323,-0.40942 -2.78173,-3.919 -7.27734,-7.79883 z m 220.9414,14.22461 c -1.21338,0.0344 -0.38452,1.36014 1.83985,2.94532 2.22437,1.5852 5.03662,2.85471 6.25,2.82031 1.21338,-0.0343 0.38648,-1.36013 -1.83789,-2.94531 -2.22438,-1.5852 -5.03857,-2.85472 -6.25196,-2.82032 z m -245.08789,3.1836 c -0.53627,-0.0188 -1.10585,-0.0155 -1.70898,0.0117 -8.07389,0.36476 -11.7022,3.07047 -9.93555,7.4082 1.49082,3.66048 2.83673,3.76363 11.5957,0.88672 8.56541,-2.81335 8.09295,-8.02547 0.0488,-8.30664 z m 250.5625,8.5332 c -2.61644,0 -2.46029,0.57552 0.77735,2.88281 5.29128,3.77073 8.38582,3.80687 5.08593,0.0606 -1.42654,-1.61953 -4.06571,-2.94336 -5.86328,-2.94336 z m 16.06836,0.45703 c -2.83977,-0.11212 -2.30403,3.97721 1.56055,9.17578 l 3.43359,4.61914 3.8125,-4.67187 c 4.88033,-5.97985 4.86192,-7.61719 -0.0898,-7.61719 -2.19812,0 -5.48038,-0.53603 -7.29297,-1.1914 -0.54362,-0.19655 -1.01815,-0.29844 -1.42383,-0.31446 z m -283.2832,13.28321 c -1.66685,0 -8.19336,10.08773 -8.19336,12.66406 0,1.98477 3.63387,1.10748 5.69531,-1.375 2.9407,-3.54128 4.65506,-11.28906 2.49805,-11.28906 z m 497.62305,5.80468 c -1.01034,0.0526 -1.61328,0.66254 -1.61328,1.90821 -10e-6,1.0027 -4.27676,29.05072 -9.50586,62.32812 -20.71703,131.84095 -23.50628,150.69008 -22.52149,152.19141 1.63043,2.48564 54.59934,1.86585 59.77149,-0.69922 7.08906,-3.51574 7.61053,-5.29383 7.64453,-26.10352 0.0319,-19.52851 -2.59947,-43.23496 -11.33594,-102.13086 -3.11084,-20.97063 -4.08457,-33.64951 -2.94141,-38.27929 4.0678,-16.47439 0.82108,-31.83837 -8.93945,-42.3125 -4.13466,-4.43696 -8.33586,-7.01802 -10.55859,-6.90235 z m -251.55664,0.0117 c -0.0486,0.004 -0.0742,0.0318 -0.0742,0.082 0,0.80353 2.25394,5.32611 5.00781,10.05078 2.75389,4.72466 5.67094,12.56523 6.48437,17.42383 0.81344,4.85859 2.42537,9.93749 3.58204,11.28711 3.35502,3.91467 5.93802,2.84496 4.73828,-1.96289 -1.19611,-4.79335 0.26147,-7.67523 5.29492,-10.47265 2.63674,-1.46543 0.62576,-4.18306 -10.93945,-14.79102 -7.3057,-6.70098 -13.36474,-11.68282 -14.09375,-11.61719 z m -103.20704,8.00391 -9.375,2.99219 c -5.15663,1.64627 -14.05584,3.17459 -19.77539,3.39648 -9.7607,0.37863 -10.47601,0.76534 -11.64257,6.29297 l -1.24219,5.88867 -1.58399,-5.3125 c -2.69282,-9.03884 -0.93131,-10.38947 13.5918,-10.41797 7.34805,-0.0144 17.10969,-0.65957 21.69336,-1.43359 z M 304.24414,508.5625 c -4.11653,-0.0848 -8.6029,1.68588 -20.33203,6.78906 -26.2601,11.42544 -55.56159,22.42909 -90.03906,33.8125 -29.7709,9.82944 -39.69532,14.22686 -39.69532,17.5918 0,0.9525 10.54788,6.00672 23.43946,11.23047 12.89157,5.22376 34.22234,14.55617 47.40039,20.74023 26.92412,12.63467 27.57904,12.6826 49.36133,3.50586 16.31758,-6.87447 15.16037,-5.22849 40.69336,-57.86719 l 12.35742,-25.47656 -4.53125,-3.45703 c -2.49187,-1.90117 -8.17254,-4.4853 -12.625,-5.74219 -2.36277,-0.66699 -4.15815,-1.08842 -6.0293,-1.12695 z m 46.79883,18.67773 c -1.1231,0.0269 -1.86117,0.34795 -2.44336,0.89649 -4.05697,3.82248 -25.6582,46.85622 -25.6582,51.11523 0,4.73928 -0.66585,4.95406 69.27148,-22.39453 6.58743,-2.57598 11.97847,-5.5951 11.98047,-6.70898 0.002,-1.1139 -11.8783,-7.11334 -26.40039,-13.33203 -16.5391,-7.08238 -23.38069,-9.65686 -26.75,-9.57618 z m 55.42578,32.83204 c -2.5356,-0.1209 -7.1525,1.37082 -14.17773,4.37695 -7.7757,3.32724 -24.69531,10.08443 -37.59766,15.01562 -34.87824,13.33022 -39.46823,15.89166 -44.22656,24.67969 -2.30725,4.26121 -4.19336,8.66441 -4.19336,9.78711 0,3.17436 1.73069,2.67487 23.95898,-6.93164 11.45917,-4.95238 32.55493,-14.06722 46.87891,-20.25391 22.61921,-9.76949 26.49927,-12.13583 29.51172,-18.00195 2.9247,-5.69523 3.10575,-8.51644 -0.1543,-8.67187 z m -262.03516,12.19726 c -0.7312,0.0163 -1.25373,0.15624 -1.58593,0.41602 -4.49985,3.5187 -53.840301,102.4203 -51.951176,104.13476 1.00006,0.90761 14.945426,6.93972 30.988286,13.40625 16.04285,6.46653 39.48084,16.21283 52.08593,21.65821 12.6051,5.44537 23.51455,9.94464 24.24219,9.99804 0.72765,0.0533 2.68154,-1.89101 4.3418,-4.32031 4.6801,-6.84795 47.48906,-96.35468 47.47656,-99.26367 -0.0121,-2.6025 -43.11534,-22.77896 -83.06641,-38.88477 -12.29494,-4.95656 -19.36271,-7.21526 -22.53125,-7.14453 z m 137.00196,34.0293 c -4.32493,-0.0635 -20.16563,6.73918 -23.69336,10.49805 -2.10851,2.24666 -6.89874,10.71093 -10.64649,18.80859 -3.74774,8.09766 -13.99991,28.9709 -22.78125,46.38672 -8.78132,17.4158 -15.96484,32.65446 -15.96484,33.86328 0,3.59805 13.62156,2.49482 19.07227,-1.54492 2.77798,-2.05884 7.48126,-8.46352 10.45117,-14.23243 2.96993,-5.76886 12.98037,-25.09151 22.24609,-42.93945 17.09547,-32.92987 24.10265,-48.85336 22.26172,-50.58789 -0.17458,-0.16448 -0.49791,-0.24538 -0.94531,-0.25195 z m 124.01367,0.15234 c 1.65628,-0.0569 2.90739,0.7674 2.90039,2.01758 -0.008,1.42876 -1.74846,5.07699 -3.86914,8.10742 l -1.96297,0.10262 -1.66984,-2.04012 c 0.1628,-5.42775 1.21178,-7.62616 3.86914,-8.10742 0.25067,-0.0454 0.49581,-0.072 0.73242,-0.0801 z m -18.53516,8.79688 c 1.44641,0.0427 1.33564,1.0585 -1.52929,2.76562 -1.68569,1.00444 -4.47058,1.80891 -6.18946,1.78711 -1.81184,-0.0229 -0.93783,-1.18023 2.08008,-2.7539 2.44743,-1.2762 4.51369,-1.83205 5.63867,-1.79883 z m 12.13282,2.15429 c 2.26821,4.09323 1.31299,9.31409 -1.22461,13.05274 -2.50112,3.0231 -4.09798,6.57739 -5.3125,10.27734 -3.65373,6.8563 -6.29276,14.41038 -11.35938,20.4043 -5.14452,2.13896 -4.51707,-5.11646 -3.37695,-8 1.85796,-3.62573 4.49895,-6.81639 6.36718,-10.46875 3.47963,-5.6726 9.31627,-10.0727 10.6504,-16.89063 1.07027,-3.06995 2.65489,-6.90459 4.25586,-8.375 z m -25.06836,2.9375 c 0.86675,-0.003 0.69195,0.51029 -0.24414,1.44141 -1.28398,1.27712 -17.96666,8.42741 -37.07422,15.89063 -19.10753,7.46323 -38.90133,16.26612 -43.98633,19.5625 -5.36069,3.47506 -8.75061,4.77761 -8.06641,3.09765 1.84001,-4.51782 8.24634,-7.77871 45.91992,-23.37109 28.8814,-11.95348 40.85093,-16.61092 43.45118,-16.6211 z m -9.2461,38.82227 c 1.07829,0 1.96094,0.8832 1.96094,1.96289 0,1.07969 -1.46154,1.96289 -3.24805,1.96289 -1.78655,0 -2.66916,-0.8832 -1.96093,-1.96289 0.70821,-1.07969 2.16975,-1.96289 3.24804,-1.96289 z m 13.09766,3.16211 c 2.55658,0.01 1.24958,3.54879 -3.93164,11.8789 -2.91311,4.68354 -6.38221,8.51563 -7.70899,8.51563 -1.77861,0 -1.75556,-0.61857 0.0879,-2.35547 1.3751,-1.29563 2.5,-5.12988 2.5,-8.51953 0,-4.6689 1.26305,-6.70445 5.20899,-8.39844 1.71043,-0.73426 2.99155,-1.12426 3.84375,-1.12109 z M 274.39453,677.1543 c 0.58801,0.0363 0.52711,0.9979 -0.20703,2.78711 -0.84796,2.06657 -2.08974,6.40936 -2.75977,9.64843 -0.67003,3.23906 -3.48786,8.46287 -6.25976,11.60938 -2.77316,3.14794 -4.60362,7.29136 -4.07031,9.21289 0.53308,1.92067 -0.80317,5.00335 -2.97071,6.85156 -4.4286,3.7762 -5.30818,10.60547 -1.36523,10.60547 1.41746,0 15.0984,-5.36729 30.40039,-11.92773 15.302,-6.56042 28.20273,-11.56923 28.66797,-11.13086 0.46526,0.43835 -14.38681,7.58672 -33.00391,15.88672 -18.61711,8.29999 -34.55267,15.07434 -35.41211,15.05664 -0.85944,-0.0186 -1.5625,-0.95649 -1.5625,-2.08594 0,-3.35811 25.41444,-54.88508 27.73828,-56.23828 0.33936,-0.19761 0.60869,-0.28751 0.80469,-0.27539 z m -189.521483,3.23828 -8.144531,3.46094 c -4.810115,2.04369 -7.894701,4.61037 -7.53711,6.27343 0.332952,1.54847 12.403388,7.42514 26.824219,13.0586 14.420835,5.63346 30.828205,12.6808 36.460935,15.66015 5.63274,2.97935 19.14894,9.30505 30.03516,14.05664 10.88622,4.75159 21.50907,8.65423 23.60547,8.67383 5.09004,0.0462 30.82465,-9.55635 34.60937,-12.91406 4.56919,-4.05366 0.84984,-5.75537 -6.84765,-3.13281 -3.7768,1.28677 -8.8278,2.33984 -11.22266,2.33984 -2.39485,0 -29.87499,-10.68239 -61.06836,-23.73828 z m 276.593753,2.16601 c 0.0143,1.96821 -2.35031,2.2277 -3.69336,2.94141 -1.32625,1.23154 -3.04432,1.81833 -4.79297,2.13672 -2.25507,0.826 -4.73357,1.16766 -6.79492,2.46289 -1.40747,1.11917 -3.12084,1.85154 -4.76367,2.61914 -2.04111,0.43263 -3.54336,2.09313 -5.57422,2.59766 -2.01981,0.45033 -4.20005,0.64369 -5.98047,1.80468 -1.24201,0.97933 -2.75528,1.65476 -4.1543,2.44141 -1.41078,0.58582 -3.01643,0.75956 -3.92187,2.16406 -0.91221,1.0407 -2.64254,2.77071 -3.92969,1.26172 1.94698,-1.44257 3.97247,-2.88907 6.33203,-3.56445 6.3609,-1.6523 10.76447,-6.95118 16.5293,-9.78516 3.03317,-2.15045 6.17008,-4.4047 9.87109,-5.23633 3.62742,-0.58552 7.27085,-1.0976 10.87305,-1.84375 z m 596.16406,29.50196 -29.30274,0.54297 -29.30273,0.54296 -0.65039,5.30079 c -1.19977,9.79562 2.67425,13.33079 14.78711,13.49609 5.97575,0.0815 22.11618,3.08008 35.86719,6.66406 13.75101,3.58399 28.51726,6.60919 32.81445,6.72266 l 7.8125,0.20703 -0.0449,-8.34375 -0.0449,-8.34375 -15.96875,-8.39453 z m -609.40039,4.41211 c 0.51132,-0.0113 0.88622,0.0693 1.08008,0.25195 0.77543,0.7306 0.95164,1.76046 0.39062,2.28906 -0.56102,0.52859 -4.23495,1.43877 -8.16211,2.02149 l -7.13867,1.05859 6.75,-3.34766 c 2.78456,-1.38143 5.54612,-2.2396 7.08008,-2.27343 z m 566.22265,19.24804 c -5.38643,0 -6.24114,0.66729 -5.67578,4.41797 0.4957,3.28855 2.52772,4.762 7.95704,5.77149 4.0107,0.74571 17.60583,3.55082 30.21093,6.23242 27.13304,5.77222 42.71094,6.59872 42.71094,2.26562 0,-1.59896 -2.57724,-3.41135 -5.72852,-4.02734 -3.15127,-0.61601 -18.64464,-4.1673 -34.42968,-7.89063 -15.78507,-3.72332 -31.55614,-6.76953 -35.04493,-6.76953 z m -638.39062,7.91211 c 1.14592,0 0.6759,0.85767 -1.04297,1.9043 -1.71888,1.04663 -4.06111,1.90234 -5.20703,1.90234 -1.14592,0 -0.67786,-0.85571 1.04102,-1.90234 1.71888,-1.04663 4.06306,-1.9043 5.20898,-1.9043 z m 641.19141,6.83203 c -0.40407,0.0239 -0.69869,0.0827 -0.86524,0.17969 -2.61794,1.52448 -2.05776,4.83416 2.37305,14.03125 2.21064,4.58868 5.02289,8.34375 6.25,8.34375 4.18137,0 29.22461,-11.52494 29.22461,-13.44922 0,-2.04379 -30.92144,-9.46454 -36.98242,-9.10547 z m -147.96875,4.8086 c -3.76504,0.0448 -8.18533,0.75383 -13.32032,2.09765 -6.57839,1.72155 -8.09172,3.26212 -10.93945,11.13672 -4.27719,11.82731 -4.17897,17.57767 0.3418,20.0586 5.48893,3.01223 26.73919,2.51357 35.22265,-0.82618 l 7.48438,-2.94531 -0.97852,-11.12109 c -1.11628,-12.68307 -6.51545,-18.5348 -17.81054,-18.40039 z m -438.86133,41.30273 c 4.80509,0 27.93554,9.97484 27.93555,12.04688 -10e-6,2.82576 -5.96087,1.91249 -14.58399,-2.23243 -4.49237,-2.15938 -10.11687,-3.92578 -12.5,-3.92578 -2.38314,0 -8.00958,1.76641 -12.50195,3.92578 -8.75684,4.20921 -15.66057,5.19283 -13.51758,1.92579 1.84087,-2.80643 20.99291,-11.74024 25.16797,-11.74024 z m 58.16797,7.34961 c 1.14792,-0.081 2.28415,0.88812 2.70703,2.95703 0.4392,2.14878 -0.58262,3.43555 -2.72852,3.43555 -2.00167,0 -3.15086,-1.27033 -2.75781,-3.04883 0.47114,-2.132 1.63137,-3.26275 2.7793,-3.34375 z"
         transform="translate(-103.21422,-108.73751)"
         id="path43510"
         inkscape:connector-curvature="0"
         sodipodi:nodetypes="ssssssssssssssssssssssssssssssssssssssssssssssssscsssssssscssscccsssscsssscssssssssssssccssssssssscccsssscssssscccssssssssssssssssssssssccsssssssssssssssssssssssssssssscssssssssssssssssscssssssssssscssssssssssssssssssssssssssssssssssssssccssssssscsssscssssssssscsssssssscsscsssscsssscccsssccssssssssscssssscsssssssssssscssssssssssssscccsssscsssscssssssssssssssssscsssssssscsssssssssscssssssssssssssscssssssccsscsssssssssssscssssscsssssssssscccccssscccccssscccsssssssssssssssssssssssssssssccccccccssssscccccsscccccccccccsscccsccssssssscccscccssscccsscccccsccsccccssssssssccssscscccsssssscccscsccssscssssscccssssssssssssssssscssssssscccscccsccsssssssscssssssscsssssssssssscssscscsssssssssscssccccsssscssccccccccscsssssssscsssssscscssssssscscsscccsssscsssscccccccccccccccccccssccccccscscccssssssssssssssscsssssssscccssssssssssscs" />
      <path
         style="fill:#32a9dd"
         d="m -103.21422,725.13704 0,-23.55684 17.188769,-0.18924 c 9.453823,-0.10404 105.789061,-0.3249 214.078311,-0.49076 l 196.88953,-0.30155 0.68845,-5.68336 13.89596,5.68336 59.99087,0.39399 59.99089,0.39401 1.94129,-4.81092 c 1.689,-4.18563 3.23423,-4.80699 11.88944,-4.78084 12.27886,0.0371 17.48472,2.4707 11.76072,5.49779 -3.22209,1.70397 -3.35544,2.2413 -0.77085,3.10603 6.71637,2.24717 111.87766,0.0981 132.88569,-2.71555 21.37091,-2.86229 21.41645,-2.88014 20.23978,-7.92788 l -1.17933,-5.05912 18.30472,0.0989 c 10.0676,0.0544 20.97584,-0.68127 24.24056,-1.6349 5.17828,-1.51261 5.84075,-1.26208 5.19078,1.96306 -0.47814,2.37259 -4.09726,4.74445 -10.10279,6.62102 l -9.35777,2.92408 17.54396,1.79726 17.54394,1.79727 4.84319,-5.70287 c 2.66376,-3.13657 4.84784,-7.52435 4.85353,-9.75061 0.0104,-4.01127 11.76347,-13.99729 13.99724,-11.89262 0.63713,0.60028 0.0227,3.67496 -1.36552,6.83258 -1.38816,3.15763 -2.16528,8.26538 -1.72694,11.3506 l 0.79698,5.60945 1.61585,-5.88921 c 3.13598,-11.42948 6.43812,-17.71232 12.88934,-24.52395 3.58648,-3.78684 7.17672,-9.42739 7.97832,-12.53457 0.8016,-3.10719 6.74706,-10.8745 13.21212,-17.2607 l 11.75466,-11.61128 12.59973,0.57461 12.59972,0.57461 9.9166,18.55825 c 5.45414,10.20705 9.91661,20.48518 9.91661,22.84029 0,2.39539 -2.28312,5.69155 -5.18192,7.48114 -5.67534,3.50368 -14.30841,17.76982 -12.97836,21.44669 0.45904,1.26896 2.84909,-1.396 5.31123,-5.92213 2.46216,-4.52613 7.53239,-10.40576 11.26721,-13.06586 11.86135,-8.44816 45.10293,-20.58089 60.44035,-22.05989 l 14.06354,-1.35617 0,48.3663 0,48.36632 -494.8282,0 -494.8282,0 z M 642.15331,679.8292 c -4.52077,-2.48093 -4.61869,-8.23237 -0.3415,-20.05968 2.84773,-7.8746 4.35992,-9.41408 10.93831,-11.13563 20.53995,-5.37528 29.64231,-0.60871 31.13069,16.30205 l 0.97889,11.12165 -7.48318,2.94596 c -8.48346,3.33975 -29.73428,3.83788 -35.22321,0.82565 z m 173.3942,-23.89036 c -4.43081,-9.19709 -4.99041,-12.50683 -2.37247,-14.03131 2.6647,-1.55169 37.84786,6.74499 37.84786,8.92504 0,1.92428 -25.04356,13.44932 -29.22493,13.44932 -1.22711,0 -4.03982,-3.75437 -6.25046,-8.34305 z m 28.18319,-12.53411 c -12.6051,-2.6816 -26.19986,-5.48576 -30.21057,-6.23147 -5.42932,-1.00949 -7.46228,-2.48423 -7.95798,-5.77278 -0.56536,-3.75068 0.291,-4.41691 5.67744,-4.41691 3.48878,0 19.25827,3.04635 35.04334,6.76967 15.78504,3.72333 40.22311,7.27368 43.37439,7.88969 3.15127,0.61599 7.30806,5.40274 7.30806,7.0017 0,4.3331 -26.10164,0.53232 -53.23468,-5.2399 z m -204.50846,-5.23802 c -2.17018,-3.9541 -3.41131,-11.03259 -3.41131,-19.45553 0,-11.09796 -0.61584,-13.42421 -3.80645,-14.37834 -9.81633,-2.93552 -15.62692,-19.55673 -27.76745,-79.42887 -1.64199,-8.09766 -4.44741,-19.98805 -6.23425,-26.42311 -1.78684,-6.43504 -3.2488,-13.81614 -3.2488,-16.40242 0,-2.58631 -3.71569,-14.98888 -8.25709,-27.5613 -4.5414,-12.57243 -10.08206,-30.80939 -12.31255,-40.52658 -2.2305,-9.71719 -4.74575,-20.22868 -5.58944,-23.35886 -2.11795,-7.85785 1.93369,-5.22078 9.69489,6.31004 3.88968,5.7789 6.04675,11.59691 6.04675,16.30914 0,5.57566 1.31131,8.29732 5.4897,11.39408 9.53766,7.06872 21.82257,4.04469 14.50753,-3.57116 -6.45837,-6.72398 -3.17265,-10.45776 4.98089,-5.66009 3.1275,1.84026 4.66061,1.86393 6.5319,0.1009 3.43271,-3.23432 -2.30084,-11.00834 -12.66562,-17.17319 -7.63282,-4.53999 -23.01137,-21.16467 -23.01137,-24.87607 0,-4.35507 6.721,-0.99488 8.69802,4.34861 1.30876,3.53735 4.45485,6.8261 7.61187,7.95703 4.47427,1.60279 5.94823,1.21918 8.74663,-2.2763 2.93157,-3.66185 4.62261,-4.02631 13.11461,-2.82645 8.90972,1.25886 9.74907,1.03164 9.74907,-2.63928 0,-2.29267 1.78857,-4.55161 4.16698,-5.26285 4.63924,-1.38734 5.50449,-6.78838 1.66679,-10.40427 -1.3751,-1.29563 -5.48895,-2.35568 -9.14191,-2.35568 -4.18228,0 -10.56723,-2.54422 -17.24271,-6.87075 -5.83055,-3.7789 -11.38438,-6.87074 -12.34184,-6.87074 -3.99392,0 -10.86424,-8.39116 -10.91177,-13.3272 -0.0552,-5.72478 -6.30034,-24.69725 -10.58653,-32.1609 -1.44348,-2.51359 -3.33129,-12.0789 -4.1951,-21.25625 -0.86384,-9.17735 -1.86449,-18.45285 -2.22369,-20.61223 -0.54741,-3.29087 0.69112,-4.02922 7.65444,-4.56317 9.58559,-0.73505 12.96346,-2.83524 14.20201,-8.8301 0.73101,-3.5382 0.93196,-3.3565 1.16684,1.05503 0.38365,7.20617 4.24268,8.65922 27.36906,10.30533 10.88622,0.77486 20.96509,2.31997 22.39749,3.43354 1.81461,1.41074 3.55361,1.28242 5.73475,-0.42314 1.91141,-1.49464 5.67219,-1.96886 9.65782,-1.21781 3.59008,0.67652 10.38514,0.2448 15.10011,-0.95937 15.07812,-3.85081 31.25529,-5.31907 35.65803,-3.23637 8.50896,4.02515 15.62616,12.0011 15.62616,17.51164 0,5.53571 3.83153,9.59253 30.21056,31.98693 24.52654,20.82174 36.29737,32.39736 43.94379,43.21503 4.47887,6.33641 8.97331,12.54293 9.98763,13.79226 1.47098,1.81178 -12.42288,103.596 -18.82351,137.89824 -1.78022,9.54048 -4.89735,5.63942 -4.89735,-6.12896 0,-5.68222 -1.53765,-14.58325 -3.417,-19.78004 -3.17269,-8.77323 -3.16948,-10.18849 0.045,-19.79646 3.36101,-10.04614 3.33316,-10.5533 -0.95578,-17.40239 -3.04117,-4.85638 -5.91569,-7.0547 -9.22479,-7.0547 -3.3492,0 -12.29074,-7.00225 -29.48388,-23.08923 -25.81006,-24.14948 -49.72095,-43.42965 -63.45229,-51.16371 -4.45669,-2.51019 -8.10306,-5.27828 -8.10306,-6.15129 0,-0.87302 6.12268,-2.20508 13.60594,-2.96016 20.41353,-2.05975 44.70901,-8.01032 48.58776,-11.90034 3.21573,-3.22509 3.16886,-3.34848 -0.73083,-1.92375 -17.46775,6.38173 -55.15892,11.68806 -57.2959,8.06637 -0.57295,-0.97103 2.55349,-2.93828 6.94764,-4.37165 9.3574,-3.05238 27.49566,-15.13637 29.274,-19.5028 1.43048,-3.51235 1.29982,-3.44859 -16.94084,8.26707 -12.75194,8.19034 -25.11477,12.18964 -29.60266,9.57628 -7.35234,-4.28135 -18.7811,-35.56007 -18.97903,-51.94251 -0.11334,-9.38655 -0.43188,-10.2378 -2.25379,-6.02368 -1.18561,2.74237 -1.54132,9.88788 -0.80623,16.19532 1.20582,10.34636 0.97272,11.28765 -2.79533,11.28765 -2.26096,0 -8.40172,-3.08601 -13.64611,-6.85777 -5.24441,-3.77178 -9.53529,-6.07809 -9.53529,-5.12516 0,3.71236 7.78047,10.09133 18.24879,14.96165 7.98584,3.71534 12.05724,7.13024 15.01602,12.59472 2.23269,4.12348 3.50235,8.02212 2.82148,8.66365 -0.68086,0.64151 -6.96928,0.69377 -13.97426,0.11621 -15.64624,-1.2902 -12.0278,1.48648 6.6412,5.09625 16.43088,3.17703 20.19268,8.38708 19.13233,26.498 -0.94994,16.22494 -0.71822,73.19861 0.52698,129.56257 0.74778,33.84965 1.964,50.42966 4.31996,58.89208 4.65878,16.73404 6.59984,35.50585 3.83768,37.11427 -1.23447,0.71886 -6.26404,-1.00709 -11.17682,-3.83548 -8.12292,-4.6765 -7.58021,-3.88684 5.98919,8.71424 12.82024,11.90539 15.24079,15.25941 17.18877,23.81755 2.592,11.38759 2.92671,25.5261 0.67273,28.41674 -0.84189,1.07969 -10.21237,2.12339 -20.82328,2.31935 l -19.29257,0.35626 -3.41132,-6.21549 z m 30.53728,-361.69182 c 0,-0.53984 -2.81271,0.38891 -6.25046,2.0639 -3.43776,1.67499 -6.25047,3.48711 -6.25047,4.02696 0,0.53984 2.81271,-0.38891 6.25047,-2.06389 3.43775,-1.67499 6.25046,-3.48712 6.25046,-4.02697 z m 176.05466,353.39538 c -13.75101,-3.58398 -29.8911,-6.58304 -35.86685,-6.66458 -12.11286,-0.1653 -15.98593,-3.70043 -14.78616,-13.49605 l 0.64932,-5.30136 29.30262,-0.54244 29.3026,-0.54245 15.96829,8.39473 15.96828,8.39471 12.14669,10.32604 1.07481,5.65878 -6.2914,1.69278 -14.65317,-1.19767 c -4.29719,-0.11347 -19.06391,-3.1385 -32.81492,-6.72249 z m -69.06012,-13.72468 c -1.13881,-2.79618 3.55079,-34.36514 40.8201,-274.78859 26.06442,-168.14096 41.78269,-270.480135 41.78269,-272.040546 0,-2.128226 6.13722,-7.696819 8.48277,-7.696819 1.06406,0 1.93312,1.987608 1.93127,4.416906 -0.002,2.429298 -9.4137,64.045129 -20.91515,136.924079 -11.50145,72.87895 -29.26876,185.95173 -39.48289,251.27286 -25.22507,161.31843 -24.96053,159.66753 -26.02949,162.44398 -1.30397,3.3868 -5.11871,3.0789 -6.5893,-0.53187 z m 17.23801,-18.20396 c -0.98479,-1.50133 1.8045,-20.35025 22.52153,-152.1912 5.2291,-33.2774 9.50746,-61.32475 9.50746,-62.32745 0,-3.98613 6.15739,-1.45972 12.17144,4.99403 9.76053,10.47413 13.00593,25.83737 8.93813,42.31176 -1.14316,4.62978 -0.16876,17.30922 2.94208,38.27985 8.73647,58.8959 11.36763,82.6014 11.33573,102.12991 -0.034,20.80969 -0.55515,22.58939 -7.64421,26.10513 -5.17215,2.56507 -58.14173,3.18361 -59.77216,0.69797 z M 591.07769,420.37054 c -1.15667,-1.34962 -2.76856,-6.42906 -3.582,-11.28765 -0.81343,-4.8586 -3.73215,-12.69945 -6.48604,-17.42411 -2.75387,-4.72467 -5.00705,-9.24772 -5.00705,-10.05125 0,-0.80352 6.37586,4.38719 14.1686,11.5349 11.56521,10.60796 13.57505,13.32573 10.93831,14.79116 -5.03345,2.79743 -6.49094,5.68053 -5.29483,10.47388 1.19974,4.80785 -1.38197,5.87774 -4.73699,1.96307 z m 23.77715,-48.76773 c -4.41666,-5.94123 -4.48629,-10.43448 -0.1373,-8.86208 1.81259,0.65537 5.09408,1.19156 7.2922,1.19156 4.95176,0 4.97133,1.63671 0.091,7.61656 l -3.81293,4.67192 -3.43296,-4.61796 z m -42.61602,-12.08742 c 0.66659,-10.75864 -1.84235,-14.44089 -5.53627,-8.1253 -5.43129,9.28604 -9.96721,14.50527 -12.60622,14.50527 -2.30934,0 -2.09967,-2.11269 1.07139,-10.79688 3.97938,-10.89776 3.6194,-13.52637 -1.03163,-7.53331 -3.97624,5.12353 -9.8084,1.95095 -8.11306,-4.41334 1.27482,-4.78574 1.05068,-4.99856 -3.07406,-2.91865 -2.44704,1.23393 -4.47335,1.99155 -4.50296,1.68365 -0.0296,-0.30791 -0.35842,-13.36886 -0.73074,-29.02434 -0.5829,-24.50986 -1.43534,-30.56345 -6.1357,-43.57226 -4.98366,-13.7928 -18.08159,-80.7091 -18.08159,-92.37736 0,-8.59703 4.58521,-10.1016 16.30641,-5.3507 5.70292,2.31153 12.39123,6.231 14.86291,8.70992 5.01927,5.03398 12.54757,34.78922 12.63739,49.94871 0.0294,4.96464 1.8805,16.53534 4.1135,25.71269 2.23299,9.17735 4.08407,20.87286 4.11349,25.99002 0.0298,5.16897 2.3459,14.76588 5.21159,21.59375 11.41299,27.19287 13.35503,47.04197 5.95613,60.8758 -4.17996,7.81533 -5.18066,6.71435 -4.46058,-4.90767 z m 25.76305,5.33601 c -3.23764,-2.30729 -3.39242,-2.88217 -0.77598,-2.88217 1.79757,0 4.4355,1.32507 5.86204,2.9446 3.29989,3.74632 0.20522,3.70833 -5.08606,-0.0624 z m -4.41229,-11.65356 c -2.22437,-1.58518 -3.05156,-2.91025 -1.83818,-2.9446 1.21339,-0.0344 4.02609,1.23455 6.25047,2.81975 2.22437,1.58518 3.05155,2.91025 1.83817,2.9446 -1.21338,0.0344 -4.02609,-1.23455 -6.25046,-2.81975 z m -64.60954,-34.56616 c -2.16606,-2.25513 -7.23881,-5.47005 -11.27279,-7.14427 -7.22424,-2.9983 -7.2562,-3.06321 -2.12578,-4.31897 2.86479,-0.70121 6.13422,-3.23369 7.26539,-5.62771 2.55194,-5.40099 5.23553,-5.64003 5.23553,-0.46638 0,2.13752 1.52372,7.47446 3.38604,11.85986 3.9644,9.33534 3.0396,11.45278 -2.48839,5.69747 z M 645.79942,254.3834 c -6.87551,-0.32921 -13.29894,-1.34612 -14.27431,-2.25981 -0.97536,-0.91369 -1.10758,-4.51747 -0.29381,-8.00838 l 1.47957,-6.34713 13.55554,1.19268 c 14.54516,1.27974 19.32613,3.5858 19.32613,9.32175 0,5.12281 -5.40783,6.78967 -19.79312,6.10089 z m -33.3358,-1.72171 c -14.66256,-1.68752 -15.62615,-2.27306 -15.62615,-9.49555 l 0,-6.83334 13.28756,0 c 16.17957,0 20.6394,3.19854 15.78048,11.31756 -3.368,5.62779 -4.48079,6.04266 -13.44189,5.01133 z m 58.08762,-3.47493 c -1.70985,-4.1983 0.87219,-6.96475 6.50048,-6.96475 6.14004,0 8.47419,3.16348 5.13299,6.95672 -3.24274,3.68144 -10.13544,3.68619 -11.63347,0.008 z m -104.96608,-3.03862 c -4.777,-4.5009 -5.60029,-15.30954 -1.28495,-16.86979 1.5851,-0.5731 6.27294,0.29293 10.41744,1.92452 6.59013,2.59439 7.53541,3.81465 7.53541,9.7274 0,9.69406 -8.9451,12.49432 -16.6679,5.21787 z m 128.09356,-0.0624 c -0.80914,-1.23356 -0.49078,-3.16653 0.70743,-4.29549 2.8,-2.63817 9.32806,-0.33704 8.18889,2.88657 -1.15966,3.28163 -7.05545,4.21534 -8.89632,1.40892 z m -37.17024,-10.13111 -10.12579,-2.08853 1.3476,-7.10968 c 0.74118,-3.91034 2.29781,-12.34506 3.45919,-18.74384 1.23249,-6.79059 3.58595,-12.66078 5.65296,-14.1001 2.83706,-1.97551 3.02341,-2.96074 0.93703,-4.95378 -2.82761,-2.70111 -3.63971,-28.65469 -1.00985,-32.27337 0.8419,-1.15845 3.31191,-2.72741 5.48893,-3.48661 3.8352,-1.33746 3.82336,-1.516 -0.38089,-5.74602 -4.15497,-4.18044 -4.22202,-4.99911 -1.57984,-19.29554 3.16807,-17.14199 18.9664,-49.712343 31.92398,-65.81552 4.45877,-5.54119 10.28191,-15.258383 12.94029,-21.593761 2.65838,-6.335376 5.61237,-12.346379 6.56444,-13.357783 2.81769,-2.993304 12.03964,6.734691 14.48036,15.274946 2.9187,10.212761 -1.88476,28.975752 -11.77999,46.01439 -7.84185,13.502888 -8.0842,14.164678 -5.18715,14.164678 3.45506,0 12.69716,-13.047904 16.88064,-23.831936 2.22141,-5.726264 4.63915,-16.178204 5.37275,-23.226533 1.88851,-18.144539 3.47944,-20.387161 13.559,-19.113345 15.35717,1.940778 15.84361,4.627054 2.89407,15.982114 l -11.5151,10.097249 0,12.291434 c 0,16.101357 3.84897,23.039356 14.44013,26.029147 9.68352,2.73358 14.13377,1.51333 16.62239,-4.557793 1.00714,-2.456973 4.33307,-6.660603 7.39096,-9.341406 3.05789,-2.680803 7.52022,-7.98109 9.91632,-11.778415 6.4342,-10.196953 9.53733,-11.811902 22.69657,-11.811902 18.18488,0 18.52358,0.29271 18.52358,16.008316 0,12.153312 -0.58546,14.136414 -5.41957,18.357587 -2.98076,2.602813 -10.49203,6.121773 -16.69167,7.819883 -7.70132,2.10946 -16.37963,6.95471 -27.39536,15.29534 -18.09256,13.69892 -21.8753,19.58509 -34.96881,54.41382 -8.84696,23.5329 -13.81291,33.51028 -18.50493,37.17924 -2.88554,2.25637 -3.27455,1.65375 -3.25278,-5.03901 0.036,-11.10814 4.49525,-24.98105 14.26149,-44.3694 9.59496,-19.04829 10.14858,-20.84646 5.23535,-17.0045 -8.09873,6.33286 -23.6495,46.27511 -23.72044,60.92613 -0.0575,11.8579 -1.96777,12.58145 -17.63028,6.67761 -7.69538,-2.90071 -14.38675,-4.90166 -14.86977,-4.44658 -0.48299,0.45508 4.81671,3.68733 11.77712,7.18277 15.11264,7.58942 16.27166,12.67966 3.00779,13.20967 -12.44913,0.49744 -12.70471,0.56642 -9.39864,2.5364 1.68569,1.00445 2.57522,2.28764 1.97673,2.85154 -2.37728,2.23988 -24.37636,2.74129 -33.91881,0.77309 z M 582.3279,228.522 c -9.61148,-2.22229 -16.85144,-5.10844 -18.95522,-7.55634 -1.87216,-2.17838 -5.0227,-11.64069 -7.00122,-21.02734 -3.33602,-15.82697 -3.35556,-18.08376 -0.26931,-31.06975 5.5088,-23.17936 8.21235,-24.2188 14.61724,-5.61988 3.18228,9.2409 16.11515,27.47979 21.8558,30.82264 3.91854,2.28184 2.29644,-1.20261 -4.10501,-8.81797 -7.49786,-8.91969 -15.44276,-24.85728 -18.86427,-37.84206 -2.14422,-8.13738 -1.97543,-10.47449 1.24189,-17.19686 6.00896,-12.55534 2.34819,-10.75623 -6.22798,3.0608 -8.60655,13.866 -11.23514,14.98161 -22.57736,9.58217 -9.46632,-4.50644 -16.04356,-10.63899 -16.04356,-14.95888 0,-6.30742 18.18041,-55.61445 27.39917,-74.309177 6.03555,-12.239507 10.424,-18.56003 14.14559,-20.373302 2.96749,-1.445855 16.51972,-5.806256 30.11608,-9.689778 19.48141,-5.564465 26.46147,-8.542761 32.93439,-14.052657 11.64746,-9.91460878 14.15754,-7.3313588 14.1839,14.597324 0.0167,13.595242 0.97851,18.872869 4.87715,26.751834 2.67126,5.398441 6.48089,11.081322 8.46587,12.628625 4.83155,3.766201 11.63847,16.599287 11.63847,21.941986 0,2.364698 -2.34745,8.820155 -5.21655,14.345463 -7.00221,13.484812 -10.82449,33.608192 -13.49515,71.048642 -2.46062,34.49615 -5.17009,50.54071 -9.65979,57.20228 -2.766,4.10402 -4.4125,4.40668 -23.24284,4.27239 C 606.066,232.17596 591.597,230.66512 582.3279,228.522 Z m -44.86982,-57.90141 c -4.58367,-2.65965 -9.93058,-4.86331 -11.88202,-4.897 -6.55442,-0.11317 -14.16157,-4.57534 -14.16157,-8.30684 0,-4.11844 7.21995,-18.357 10.18328,-20.08257 1.04989,-0.61136 6.78291,1.97885 12.74006,5.75601 5.95715,3.77716 12.02854,6.86758 13.49194,6.86758 6.05155,0 7.67519,5.20694 4.66086,14.94716 -1.59668,5.15938 -3.75707,9.64409 -4.80083,9.96603 -1.04377,0.32195 -5.64805,-1.59071 -10.23172,-4.25037 z M 749.4529,95.926449 c -4.50002,-1.799769 -6.77133,-4.056912 -6.77133,-6.729079 0,-4.74317 2.62273,-5.194796 6.25046,-1.0763 1.42654,1.619532 3.82993,2.944604 5.34087,2.944604 1.51093,0 3.37709,0.960353 4.14702,2.134115 2.61638,3.988717 -2.17137,5.444569 -8.96702,2.72666 z m 87.47617,-2.969443 c -9.19374,-3.480062 -10.79499,-21.302746 -2.29884,-25.58695 5.52581,-2.786391 12.2257,1.042191 12.2257,6.986229 0,2.610431 1.07541,6.970096 2.3898,9.688144 1.84451,3.814261 1.7863,5.627073 -0.2551,7.944645 -2.96991,3.371677 -5.23174,3.553202 -12.06156,0.967932 z m -85.43516,-7.783369 c -8.15017,-4.681963 -11.91767,-11.598412 -10.0786,-18.502377 1.72938,-6.492178 21.51902,-21.484586 37.78875,-28.628308 11.63642,-5.10934 15.18545,-5.620478 48.14984,-6.934639 19.57312,-0.780304 40.87517,-0.796264 47.33789,-0.03547 l 11.75039,1.383266 13.39385,16.456098 c 11.8056,14.50473 -13.63095,22.123286 -18.04575,23.211058 -6.64647,1.637635 -9.07253,-1.504412 -6.02597,-7.804408 4.06701,-8.410213 0.15439,-9.800617 -13.20397,-4.692216 -9.26954,3.544785 -13.83982,4.189786 -22.52177,3.178491 -5.99076,-0.69782 -20.10578,-1.813098 -31.36669,-2.478398 -19.04572,-1.125227 -20.605,-1.533267 -22.34592,-5.847573 -2.04294,-5.062807 -5.97736,-5.970551 -9.8919,-2.282256 -4.03569,3.802441 -2.89246,8.729011 2.84796,12.272896 4.31034,2.661011 4.8673,3.847624 2.87013,6.114981 -3.40598,3.866753 -6.88876,3.525071 -11.3435,-1.112868 -2.0741,-2.159376 -4.56332,-3.926139 -5.53164,-3.926139 -3.39679,0 -1.70963,4.158097 3.55107,8.751758 5.51583,4.816437 4.1447,7.910574 -2.51927,5.685109 -2.10876,-0.704233 -5.94364,-3.069537 -8.52196,-5.256232 -7.19732,-6.104118 -5.77453,0.06612 1.48951,6.459564 9.37294,8.249594 4.2267,10.886485 -7.78245,3.987665 z M 664.74336,62.75294 C 652.84285,47.039739 651.00813,42.516582 651.00813,28.891172 c 0,-9.578954 0.43574,-10.71391 3.64611,-9.49677 13.48489,5.112516 24.10623,6.996196 29.31622,5.199191 5.16911,-1.782912 4.90941,-1.936852 -3.50984,-2.080364 -19.01826,-0.324178 -30.90089,-12.382865 -42.15534,-42.779898 -7.12634,-19.247451 -8.16456,-24.715892 -6.81546,-35.897851 3.55111,-29.432998 19.6533,-41.970316 49.79315,-38.769465 9.06982,0.963215 15.47296,4.713247 31.08794,18.206808 7.33402,6.337624 9.36742,13.775756 9.91457,36.267211 0.21243,8.731622 -1.13594,13.425394 -7.04908,24.538366 -5.2572,9.8802608 -7.71466,17.6027083 -8.74563,27.482969 -2.07678,19.902415 -6.68497,31.410205 -19.45579,48.585964 -6.2216,8.367583 -11.63392,15.213787 -12.02737,15.213787 -0.39344,0 -5.01235,-5.673681 -10.26425,-12.60818 z"
         id="path43508"
         inkscape:connector-curvature="0"
         sodipodi:nodetypes="ccsscccccsssssscsssscccscccscsssscccsssssssccccccsssscssssssssssssssscssssssssssssscsssssssssssscsssssssssssssssssssssssssssssssssssssssssccsssscssssscccssssscsscccccccccccsssssssssssssssssssssssssscssscccssssssscssssssscsssssssssssssssssssssscssssscssscssccsssssssssscsssssssssssssssssscssssssssssssssssscssssssssssssssssssssscsssssssssssssssssssssssssssssssssscssssssssssssssssssssssssssssssss" />
      <path
         style="fill:#1897a6"
         d="m -103.21422,725.02926 c 0,-21.67173 0.31396,-23.62412 3.646103,-22.67406 2.005356,0.57179 36.461025,0.32676 76.568153,-0.54449 49.470192,-1.07463 74.040235,-0.93091 76.398972,0.44691 2.460279,1.43712 4.352877,1.34602 6.472707,-0.31162 2.220883,-1.73663 15.603021,-2.06707 51.735485,-1.2775 26.80684,0.58578 86.24248,1.25139 132.07919,1.47915 l 83.33949,0.41409 0.66788,-7.69716 c 1.55318,-17.90007 -12.9261,-35.37765 -34.65504,-41.83122 -13.02692,-3.86903 -13.54404,-4.67196 -17.98707,-27.92833 l -3.17165,-16.60156 10.90505,-22.65982 10.90503,-22.65983 1.42594,20.25591 c 1.46182,20.76566 3.48428,25.87622 10.24032,25.87622 8.24857,0 11.18506,-8.88517 12.29385,-37.19845 0.84685,-21.62476 1.61353,-26.6013 4.0982,-26.6013 2.52012,0 3.06851,4.31985 3.12523,24.61911 0.0746,26.69766 2.91488,35.2545 11.70213,35.2545 3.97265,0 4.16664,0.8505 3.02252,13.25072 -0.67245,7.28789 -1.4324,29.15158 -1.6888,48.58596 l -0.46615,35.33525 68.2342,0.0137 c 51.61939,0.01 68.2342,-0.55922 68.2342,-2.33798 0,-1.29323 -0.95286,-2.90618 -2.11746,-3.58434 -3.52147,-2.05061 -0.0811,-4.88983 5.88653,-4.85784 3.08365,0.0157 6.98671,0.85241 8.67346,1.85748 2.62863,1.56627 2.55592,2.01213 -0.50889,3.12024 -6.8653,2.4822 -1.04387,5.00938 10.65399,4.62507 6.48446,-0.21303 35.2466,0.31855 63.91591,1.18126 37.0518,1.11498 54.22358,0.9313 59.37938,-0.63513 10.8237,-3.28848 165.93279,-5.32361 169.89019,-2.22909 2.30438,1.80192 4.36028,1.81107 8.89932,0.0397 3.9179,-1.52903 14.25199,-1.98134 30.73332,-1.34511 13.65686,0.5272 32.09682,1.01465 40.97769,1.08322 l 16.14702,0.12426 0,24.48541 0,24.4854 -494.8282,0.0775 -494.8282,0.0773 0,-23.71364 z M 305.32834,568.25508 c -0.0986,-14.4858 0.40482,-25.78768 1.11848,-25.11527 2.23608,2.10682 3.06614,39.38107 1.01466,45.56391 -1.44478,4.35435 -2.00073,-0.97505 -2.13314,-20.44864 z m 31.07323,22.29585 c 0,-1.68325 0.95286,-2.50558 2.11747,-1.82742 1.16461,0.67816 1.57808,2.05537 0.91878,3.06046 -1.78603,2.72286 -3.03625,2.21515 -3.03625,-1.23304 z m 1.30218,-16.81561 c -1.49175,-7.02773 -1.78226,-32.2704 -0.3559,-30.92649 1.2549,1.18238 3.74203,37.06108 2.56909,37.06108 -0.50106,0 -1.49699,-2.76057 -2.21319,-6.13459 z m -27.68781,-42.09256 c -1.58512,-3.892 0.51912,-5.69112 9.98667,-8.53861 4.15864,-1.25077 9.22618,-4.00762 11.26123,-6.12636 2.03504,-2.11873 5.57522,-3.85223 7.86706,-3.85223 3.90491,0 3.95012,0.22575 0.71882,3.58994 -1.89649,1.97447 -3.44815,5.91861 -3.44815,8.76475 0,6.37189 -5.15038,9.23907 -16.59631,9.23907 -5.82855,0 -8.93378,-0.9759 -9.78932,-3.07656 z m 9.71773,-20.9253 c 0,-3.57856 3.69365,-6.5445 5.7442,-4.61249 0.71499,0.67367 -0.28496,2.71819 -2.2221,4.54339 -3.24805,3.06031 -3.5221,3.06569 -3.5221,0.0691 z m 37.3487,-6.04388 c 5.79616,-14.36395 -10.96971,-37.47992 -18.43042,-25.41097 -1.16803,1.88946 -2.15218,2.44585 -2.18702,1.23642 -0.0348,-1.20943 5.10625,-12.25169 11.42468,-24.53836 l 11.48803,-22.33942 -0.84293,13.39463 c -0.65797,10.45539 -0.17648,13.63566 2.19468,14.49293 5.39015,1.94886 6.78623,-2.04562 8.98885,-25.7189 1.18967,-12.78635 2.61915,-23.94328 3.17665,-24.79317 0.55748,-0.84989 2.98266,-1.06011 5.38929,-0.46713 4.04564,0.99681 4.27078,1.98239 2.98481,13.06642 -1.75174,15.09862 -10.36508,43.3974 -13.20894,43.3974 -3.91801,0 -5.19961,2.81265 -2.61736,5.74423 1.96255,2.22805 2.01309,5.32946 0.21958,13.46949 -1.63276,7.41035 -1.68339,12.17746 -0.16918,15.92989 2.91041,7.21249 2.99623,7.06238 -4.03806,7.06238 -5.61179,0 -6.02593,-0.42866 -4.37262,-4.52584 z m -19.49267,-3.10326 c -0.62769,-0.95693 0.91678,-2.24697 3.43217,-2.86675 5.25033,-1.29362 6.80771,-0.48521 4.84107,2.51297 -1.66538,2.53889 -6.69873,2.75413 -8.27324,0.35378 z m 36.31464,-5.38548 c 0,-3.00536 2.36895,-12.16915 13.22891,-51.17349 5.16682,-18.55699 7.26087,-17.06111 7.41376,5.29599 0.10501,15.35958 -3.53641,26.25503 -12.27205,36.71874 -2.31201,2.76936 -4.20365,6.68282 -4.20365,8.69659 0,2.01378 -0.93756,3.6614 -2.08348,3.6614 -1.14592,0 -2.08349,-1.43965 -2.08349,-3.19923 z M -2.4536764,478.42387 c -1.8930418,-4.26883 -2.6942906,-9.68364 -1.960751,-13.25072 0.68224,-3.3176 1.822072,-9.77223 2.53296,-14.34361 1.51672235,-9.75334 3.3025105,-11.48017 13.7799134,-13.32494 8.109972,-1.42796 10.662154,1.48082 5.536573,6.31016 -2.600306,2.45003 0.122884,8.63017 6.892403,15.64203 6.106569,6.32517 4.104815,11.58119 -4.17584,10.96453 -6.969202,-0.51898 -8.891963,2.54649 -4.306907,6.86654 1.789161,1.68575 1.269558,1.97136 -2.083488,1.1452 -3.528093,-0.86929 -4.4671002,-0.22725 -4.4671002,3.05444 0,7.33259 -8.0708479,5.22787 -11.7477632,-3.06363 z M 50.327554,441.20121 c -4.184807,-3.94294 0.957808,-28.04437 7.101768,-33.28321 2.173569,-1.85337 3.951784,-3.01199 3.951588,-2.57474 -1.98e-4,0.43727 -1.406775,7.72004 -3.125731,16.18395 -3.313161,16.31358 -5.564444,21.90059 -7.927625,19.674 z m 267.322636,-0.68454 c 0,-1.0661 -6.45002,-4.99884 -14.33339,-8.73939 -11.24448,-5.33534 -14.64871,-7.98472 -15.79659,-12.29386 -0.80474,-3.02106 -1.39104,-5.85501 -1.30286,-6.29764 0.0881,-0.44263 6.93432,-0.88432 15.21368,-0.98153 l 15.05338,-0.17668 3.63723,12.75995 c 2.00046,7.01797 3.22974,13.86418 2.73174,15.21379 -1.0713,2.90324 -5.20319,3.31256 -5.20319,0.51536 z M 78.060783,430.18588 c 0.0065,-1.34961 0.88394,-5.54567 1.950111,-9.32458 1.06617,-3.77891 2.954253,-10.56225 4.195741,-15.07411 1.897492,-6.89591 3.426734,-8.56701 9.594995,-10.48507 9.05264,-2.81496 13.41635,-1.42758 13.41635,4.26555 0,2.39222 1.98246,8.20803 4.40547,12.92403 2.42302,4.71598 4.06376,8.84989 3.64611,9.18646 -1.12131,0.9036 -33.846202,10.96156 -35.664884,10.96156 -0.855532,0 -1.550283,-1.10423 -1.543893,-2.45384 z M 2.2255233,420.66963 c 0.8144685,-5.78491 2.5036953,-15.39624 3.7538355,-21.35849 l 2.2729845,-10.84048 12.9344117,0.0157 c 18.25286,0.0224 19.286774,1.66094 12.03055,19.06671 -7.454619,17.88167 -8.016712,18.56826 -16.183149,19.76744 -3.684078,0.54096 -8.856337,1.63235 -11.4939046,2.42531 -4.7118646,1.41655 -4.76972929,1.25809 -3.3147281,-9.07631 z m 324.7574167,-7.9001 c -0.99945,-5.57382 -2.67726,-8.39391 -5.39186,-9.06276 -5.43796,-1.33988 -4.93407,-3.77873 1.07427,-5.19958 2.75833,-0.65229 6.37462,-1.67751 8.03618,-2.27824 1.99027,-0.71961 3.94083,1.00002 5.71692,5.04006 2.29635,5.22345 2.19108,7.12977 -0.71026,12.8623 -4.49365,8.87863 -6.958,8.49401 -8.72525,-1.36178 z m -202.17345,-0.67488 c -3.26722,-3.07839 -5.09058,-7.0357 -5.09058,-11.04825 l 0,-6.25187 10.9383,1.23791 c 6.01607,0.68085 13.91845,1.24559 17.56082,1.25497 6.91505,0.0177 14.67565,5.30318 11.74195,7.99684 -0.93311,0.85676 -4.27488,2.15771 -7.42615,2.89101 -4.93809,1.14906 -5.72959,0.7389 -5.72959,-2.9693 0,-6.1359 -4.98051,-3.87604 -6.25046,2.83611 -1.55472,8.21727 -9.22791,10.19233 -15.74429,4.05258 z m 130.43801,-1.91451 c -1.98357,-2.25191 -1.56627,-4.00835 2.04602,-8.61182 6.93387,-8.83652 12.96198,-11.23742 20.66582,-8.2308 3.49528,1.36412 6.32386,3.47726 6.28573,4.69588 -0.13896,4.43922 -8.01382,11.04949 -13.16349,11.04949 -2.89996,0 -5.8521,0.88338 -6.56032,1.96307 -1.85926,2.83449 -6.38672,2.41178 -9.27376,-0.86582 z M 48.880343,398.11591 c 0,-3.44912 5.819805,-9.72383 7.526979,-8.11533 0.889467,0.83805 -0.440229,3.46228 -2.954883,5.83159 -2.514652,2.36931 -4.572096,3.39699 -4.572096,2.28374 z m 132.081567,-4.50866 c 2.66857,-2.77832 3.86251,-8.87716 4.80381,-24.53837 l 1.25261,-20.84114 7.49916,-0.0695 c 4.12454,-0.0383 9.84308,-1.3321 12.70788,-2.87511 2.86479,-1.54302 9.89656,-2.80548 15.62615,-2.80548 5.72959,0 12.76136,1.26246 15.62615,2.80548 2.8648,1.54301 7.50135,2.83679 10.30343,2.87503 5.99682,0.0819 16.78191,9.11977 16.78191,14.06321 0,2.18602 -4.37539,5.64143 -11.98005,9.46111 -8.44779,4.24318 -14.07269,8.90751 -19.07747,15.81967 -3.90358,5.39128 -7.74147,9.80231 -8.52865,9.80231 -0.78717,0 -6.74052,-1.72108 -13.22967,-3.82465 -11.65886,-3.7794 -11.903,-3.77991 -20.64017,-0.0432 -11.79245,5.04351 -15.88576,5.10616 -11.14509,0.17059 z m 117.54624,0.39316 c 1.50401,-0.56707 3.30101,-0.49734 3.99336,0.15489 0.69232,0.6523 -0.53825,1.11628 -2.73458,1.03104 -2.42716,-0.0942 -2.92084,-0.55936 -1.25878,-1.18601 z m -233.146446,-12.0238 -11.048391,-9.57187 3.378512,-8.65313 c 1.858181,-4.75922 3.999218,-12.405 4.757859,-16.99064 0.758642,-4.58561 3.000953,-10.22435 4.982912,-12.5305 3.00606,-3.49776 4.33431,-3.82453 8.010706,-1.97069 9.334012,4.7067 8.233958,12.95463 -2.783847,20.87261 -5.701256,4.09724 -7.111215,6.47067 -7.111215,11.97058 0,11.0702 14.588704,21.92319 18.048927,13.42716 0.762723,-1.87275 -0.481436,-4.21261 -3.190621,-6.00053 -2.442479,-1.6119 -4.44087,-4.75044 -4.44087,-6.97451 0,-3.29788 0.864704,-3.78665 4.687846,-2.64976 14.351699,4.26774 21.735238,2.4635 16.099939,-3.93416 -2.029417,-2.30398 -1.46012,-3.19476 3.081496,-4.82169 3.063943,-1.09758 8.401313,-1.9956 11.860813,-1.9956 3.45949,0 18.36696,-2.82808 33.12772,-6.28463 14.76076,-3.45653 27.57351,-5.58784 28.47279,-4.73622 2.03234,1.92467 1.88828,35.48415 -0.18543,43.18466 -1.5139,5.6219 -1.60972,5.65297 -13.39487,4.34698 -6.52852,-0.72347 -17.33461,-1.85461 -24.01354,-2.51361 -10.5947,-1.04541 -11.98978,-1.66243 -10.93831,-4.83775 0.66286,-2.00174 1.78332,-5.40629 2.48994,-7.56567 2.14491,-6.55475 -4.36466,-4.65805 -10.64675,3.10218 -4.6038,5.68703 -6.65291,6.8005 -10.73742,5.83461 -4.99258,-1.18064 -22.322816,3.28318 -27.026611,6.96136 -1.69055,1.32193 -5.805487,-1.01889 -13.481627,-7.66918 z m 277.290326,3.54945 c -2.6933,-1.63995 -2.6383,-1.90711 0.39791,-1.93302 1.93772,-0.0157 4.10259,0.85333 4.81081,1.93302 1.62966,2.48446 -1.12848,2.48446 -5.20872,0 z M 28.489252,378.96251 c -8.181623,-1.5072 -10.856187,-2.81777 -10.396511,-5.09436 0.466374,-2.30976 3.822742,-3.20914 13.619757,-3.64956 7.150478,-0.32143 13.013674,0.12034 13.029321,0.98154 0.01563,0.86129 0.593781,3.55358 1.284742,5.98288 1.425054,5.01023 0.506275,5.10347 -17.537309,1.7795 z M 27.5246,352.75515 c -6.40505,-0.96367 -6.969613,-3.22175 -2.604359,-10.41662 1.637664,-2.69922 3.033715,-8.4412 3.102335,-12.75995 0.185305,-11.66298 3.93513,-24.99908 8.279588,-29.44604 2.109606,-2.15937 5.94026,-11.87656 8.512562,-21.59375 2.572303,-9.7172 7.352078,-22.72188 10.621726,-28.89929 3.269648,-6.17742 5.944814,-13.60852 5.944814,-16.51355 0,-2.90503 1.409256,-9.77644 3.131679,-15.26978 1.722423,-5.49333 4.300738,-14.77947 5.72959,-20.63586 2.690811,-11.02876 6.800752,-14.91051 9.163966,-8.65519 2.559712,6.77545 7.584772,10.46936 14.24216,10.46936 5.730623,0 6.915739,0.90877 8.823699,6.76617 2.96091,9.08992 0.20414,30.07611 -7.639245,58.15495 -2.089488,7.48023 -1.936441,11.04699 0.919632,21.4319 4.051577,14.73187 2.696256,28.92712 -3.466697,36.3092 -3.82253,4.5787 -4.471601,4.72953 -8.607434,2.0001 -2.460229,-1.62362 -7.498307,-2.95203 -11.195728,-2.95203 -8.326053,0 -15.581555,8.20013 -19.974694,22.5753 -2.916894,9.54462 -3.22379,9.82198 -11.126817,10.05623 -4.469953,0.13251 -10.705503,-0.14703 -13.856777,-0.62115 z m 238.07645,-7.43503 c -9.50682,-9.24166 -18.24899,-11.67437 -42.22722,-11.75072 l -20.31256,-0.0646 -0.001,-8.43079 c -0.001,-5.87747 3.15357,-15.09265 10.416,-30.42746 10.50486,-22.18134 11.99868,-26.90466 8.50902,-26.90466 -2.69913,0 -14.19948,14.07198 -17.89419,21.89561 l -3.10219,6.56889 1.22928,-9.81535 c 1.11979,-8.94136 0.6375,-10.51453 -5.41653,-17.66762 -6.31573,-7.46229 -6.57694,-8.43723 -5.25926,-19.63069 0.7626,-6.47813 3.56139,-17.96209 6.21952,-25.5199 2.65816,-7.55782 5.51503,-17.7167 6.34866,-22.5753 1.99775,-11.64373 3.98842,-14.92596 15.77533,-26.01067 9.83216,-9.24643 10.03101,-9.32458 23.72413,-9.32458 11.7792,0 14.54024,0.6891 18.7848,4.68834 2.73676,2.57859 5.58839,8.09973 6.33695,12.26919 1.83834,10.23964 11.06629,33.48703 16.64573,41.93455 11.16522,16.90466 28.10613,54.40003 28.10613,62.20739 0,9.4357 -4.98441,15.13438 -7.00926,8.01372 -0.69729,-2.45207 -1.2806,-6.12959 -1.29625,-8.1723 -0.0167,-2.04269 -3.96027,-9.55143 -8.76585,-16.68609 -4.80559,-7.13463 -10.4814,-16.34039 -12.61293,-20.4572 -2.62199,-5.06407 -5.01862,-7.26153 -7.40961,-6.79381 -6.18006,1.2089 -3.27854,10.95999 8.13545,27.34079 9.82489,14.10021 11.01273,17.02866 12.98209,32.00546 2.13376,16.22708 2.08009,16.60429 -3.4289,24.09428 -3.07813,4.18503 -5.59658,8.63515 -5.59658,9.88914 0,2.55303 -12.11763,16.15812 -14.39154,16.15812 -0.80242,0 -4.62237,-3.07519 -8.48878,-6.83376 z M 92.633573,339.39393 c 0,-1.61953 0.93757,-2.94461 2.083488,-2.94461 1.145918,0 2.083487,1.32508 2.083487,2.94461 0,1.61953 -0.937569,2.9446 -2.083487,2.9446 -1.145918,0 -2.083488,-1.32507 -2.083488,-2.9446 z m 15.365047,0.0667 c -0.76178,-1.87047 -0.83162,-12.60907 -0.15522,-23.86354 0.90068,-14.9854 0.42991,-22.94651 -1.75871,-29.74208 -4.45893,-13.84469 -4.38861,-13.92013 9.56935,-10.26664 6.71015,1.75636 7.42124,2.61815 7.68507,9.31363 0.95226,24.16759 4.33403,37.50873 8.84238,34.88346 2.94808,-1.71671 4.52788,-24.25086 2.01084,-28.68217 -1.97448,-3.47612 -1.67575,-4.8829 1.71538,-8.07803 3.98448,-3.75419 4.31496,-3.76516 11.14746,-0.37017 3.87269,1.9243 15.01059,4.94075 24.75089,6.70323 20.56859,3.7218 20.16556,3.117 20.58838,30.89558 0.24062,15.8099 0.12855,16.19533 -4.7081,16.19533 -2.76918,0 -6.27563,-1.87462 -7.94959,-4.25001 l -2.99499,-4.24999 -23.82359,6.19977 c -32.57988,8.4785 -43.12208,9.72508 -44.91957,5.31163 z m 58.59875,-60.33626 c -4.58367,-1.02457 -11.75583,-3.53847 -15.9381,-5.58646 -4.18228,-2.048 -11.68284,-4.24006 -16.66789,-4.87128 -4.98508,-0.63121 -13.13306,-2.11802 -18.10665,-3.304 l -9.04288,-2.15638 1.43544,-9.01983 c 0.7895,-4.96093 2.28048,-10.5077 3.31331,-12.32617 1.0328,-1.81847 1.97475,-7.11876 2.09317,-11.77842 l 0.21533,-8.47209 2.09966,7.45917 c 1.15479,4.10252 4.10499,8.67506 6.55598,10.16116 4.49387,2.72474 32.86245,8.8811 40.92427,8.8811 7.43799,0 13.76504,-7.96904 15.16414,-19.09952 1.91252,-15.21493 15.9586,-47.3126 27.00929,-61.72082 5.82143,-7.59013 17.25921,-13.56854 25.26659,-13.20657 3.30477,0.14939 2.72393,0.71754 -2.28156,2.23181 -3.69325,1.11728 -12.25443,7.46675 -19.02482,14.10992 -10.72652,10.52493 -12.63466,13.58339 -14.83529,23.77883 -1.38899,6.4352 -3.47579,13.90882 -4.63734,16.60804 -4.05894,9.43231 -7.91069,25.75906 -9.16244,38.83771 -1.1503,12.01858 -0.78277,13.84186 4.15903,20.63231 2.98147,4.09677 5.42086,8.29283 5.42086,9.32458 0,2.29556 -12.67202,2.04006 -23.9601,-0.48309 z M 149.1207,236.10072 c -19.58209,-3.09925 -21.93341,-4.95887 -23.31301,-18.43787 -0.66188,-6.4667 -2.30263,-13.68717 -3.6461,-16.04548 -1.34348,-2.35831 -2.44268,-6.11268 -2.44268,-8.34304 0,-3.56284 1.27738,-4.05519 10.5209,-4.05519 13.04859,0 20.45036,-3.49283 29.02943,-13.69877 7.88527,-9.38053 13.26171,-28.15471 11.95841,-41.75794 -0.49135,-5.12852 -0.32782,-9.3085 0.3634,-9.28885 0.69124,0.0196 5.31556,2.62739 10.27628,5.79502 4.96072,3.16761 14.33641,7.16769 20.83487,8.88907 6.49846,1.72138 13.04676,3.52428 14.55178,4.00647 3.02223,0.96824 1.40963,4.83054 -2.01688,4.83054 -7.65402,0 -33.01358,29.27003 -33.01358,38.10431 0,2.0859 -1.25234,5.18716 -2.783,6.89171 -3.07041,3.41924 -11.26635,29.16263 -12.23104,38.41764 -0.70326,6.74699 -2.37197,7.17987 -18.08878,4.69238 z M 89.091439,185.78376 c -3.920302,-10.14233 -24.622324,-25.58409 -31.140072,-23.22754 -3.067108,1.10894 -7.072481,-6.0024 -6.891499,-12.2355 0.05282,-1.81915 4.198479,-6.39941 9.212574,-10.17832 5.014096,-3.7789 17.39367,-13.54054 27.510167,-21.69252 10.116497,-8.15198 23.788281,-17.27326 30.381721,-20.269553 8.3595,-3.798812 13.85736,-8.007597 18.16368,-13.904865 6.18545,-8.470665 13.38338,-11.962985 19.84294,-9.627484 2.82688,1.022076 3.20076,2.93599 2.07718,10.633192 -1.15513,7.913366 -0.69595,10.022044 2.92523,13.433937 3.30883,3.117593 3.9988,5.521993 3.00393,10.468063 -0.71032,3.53149 -2.11855,7.41907 -3.12939,8.6391 -1.01085,1.22005 -1.24126,7.0014 -0.51202,12.8475 3.7419,29.99772 -12.68054,52.4674 -35.99099,49.24389 -4.52721,-0.62604 -9.31213,0.65128 -15.7445,4.20305 -10.739101,5.92978 -17.829471,6.52952 -19.708951,1.66705 z M 18.433305,151.92082 c 0.703019,-3.23906 1.84247,-8.46907 2.53211,-11.62225 0.916453,-4.19021 -0.570581,-9.2249 -5.525662,-18.70835 C 10.275282,111.70599 8.4325274,105.23848 7.704507,94.441852 6.4055257,75.177814 9.6528217,65.089213 20.378899,55.065416 34.256286,42.09664 48.345585,35.934898 65.007594,35.547724 c 17.386836,-0.404018 28.318691,2.540775 42.269666,11.386477 5.92729,3.758237 12.11846,6.833157 13.75814,6.833157 5.865,0 5.17086,5.871848 -2.27165,19.216391 -5.92196,10.618188 -12.17983,17.551743 -28.893441,32.013141 -11.733856,10.15268 -25.923839,21.55126 -31.533297,25.33017 -5.609456,3.77891 -14.954225,11.51562 -20.766148,17.1927 -6.922173,6.76157 -12.265701,10.31649 -15.491456,10.30611 -4.364324,-0.0137 -4.778961,-0.68556 -3.646103,-5.90505 z"
         id="path43506"
         inkscape:connector-curvature="0"
         sodipodi:nodetypes="csssssscssscccssssssssccsscssssssssccccccccsssssscssssssssssssssssscscscscscsssssssccsssssssssssssssssssssssssssssscscssscsssssssccsccsssccssssssssscscsssssssscsssssssssccssssssssssscccccccsssssssssssssssssssssssccscssssscsssssssssssssssssssssssscsssscsssssssssssscsssssssssssssscsssssssssssscsccsssscssscssssssssssssssssssssscsssssssssssssssssssssssssssssssssssscs" />
    </g>
  </g>
</svg>
